{
  "asset": {
    "version": "2.0",
    "generator": "THREE.GLTFExporter"
  },
  "scenes": [
    {
      "name": "Scene",
      "nodes": [
        14
      ]
    }
  ],
  "scene": 0,
  "nodes": [
    {
      "name": "bas_bar_bas",
      "mesh": 0
    },
    {
      "name": "bas_bar_bas_1",
      "mesh": 1
    },
    {
      "matrix": [
        0.6559200882911682,
        0,
        0,
        0,
        0,
        -0.007613654248416424,
        0,
        0,
        0,
        0,
        0.05317644029855728,
        0,
        0.9303154945373535,
        -0.05551233887672424,
        0.07670009136199951,
        1
      ],
      "name": "bar_bas",
      "extras": {
        "name": "bar bas"
      },
      "children": [
        0,
        1
      ]
    },
    {
      "matrix": [
        0.6559200882911682,
        0,
        0,
        0,
        0,
        -0.007613654248416424,
        0,
        0,
        0,
        0,
        0.05317644029855728,
        0,
        1.0019230842590332,
        -0.14105555415153503,
        -0.001074075698852539,
        1
      ],
      "name": "bar_bas001",
      "extras": {
        "name": "bar bas.001"
      },
      "mesh": 2
    },
    {
      "matrix": [
        0.08121006190776825,
        0,
        0,
        0,
        0,
        0.13315168023109436,
        0,
        0,
        0,
        0,
        0.08121006190776825,
        0,
        -0.2893385887145996,
        -0.043509483337402344,
        0.08135440945625305,
        1
      ],
      "name": "plateau001",
      "extras": {
        "name": "plateau.001"
      },
      "mesh": 3
    },
    {
      "matrix": [
        0.08121006190776825,
        0,
        0,
        0,
        0,
        0.13315168023109436,
        0,
        0,
        0,
        0,
        0.08121006190776825,
        0,
        1.290724277496338,
        -0.043509483337402344,
        0.08135440945625305,
        1
      ],
      "name": "plateau002",
      "extras": {
        "name": "plateau.002"
      },
      "mesh": 3
    },
    {
      "matrix": [
        0.08121006190776825,
        0,
        0,
        0,
        0,
        0.13315168023109436,
        0,
        0,
        0,
        0,
        0.08121006190776825,
        0,
        1.0110549926757812,
        -0.043509483337402344,
        0.08135440945625305,
        1
      ],
      "name": "plateau003",
      "extras": {
        "name": "plateau.003"
      },
      "mesh": 3
    },
    {
      "name": "bas_tireuse001",
      "mesh": 4
    },
    {
      "name": "bas_tireuse001_1",
      "mesh": 5
    },
    {
      "matrix": [
        2.0090380127587585e-9,
        -0.014952778962616008,
        0,
        0,
        0.10677953009002925,
        1.4346773631291286e-8,
        0,
        0,
        0,
        0,
        -0.014952776953577995,
        0,
        1.0373291969299316,
        0,
        0,
        1
      ],
      "name": "tireuse001",
      "extras": {
        "name": "tireuse.001"
      },
      "children": [
        7,
        8
      ]
    },
    {
      "name": "bas_tireuse002",
      "mesh": 6
    },
    {
      "name": "bas_tireuse002_1",
      "mesh": 7
    },
    {
      "matrix": [
        2.0090380127587585e-9,
        -0.014952778962616008,
        0,
        0,
        0.10677953009002925,
        1.4346773631291286e-8,
        0,
        0,
        0,
        0,
        -0.014952776953577995,
        0,
        0,
        0,
        0,
        1
      ],
      "name": "tireuse002",
      "extras": {
        "name": "tireuse.002"
      },
      "children": [
        10,
        11
      ]
    },
    {
      "matrix": [
        1,
        0,
        0,
        0,
        0,
        1,
        0,
        0,
        0,
        0,
        1,
        0,
        6.617543697357178,
        0.4483819305896759,
        -0.5262459516525269,
        1
      ],
      "name": "bar_du_bas",
      "extras": {
        "name": "bar du bas"
      },
      "children": [
        2,
        3,
        4,
        5,
        6,
        9,
        12
      ]
    },
    {
      "name": "v7_peniche mecanique.glb",
      "children": [
        13
      ]
    }
  ],
  "bufferViews": [
    {
      "buffer": 0,
      "byteOffset": 0,
      "byteLength": 240,
      "target": 34962,
      "byteStride": 12
    },
    {
      "buffer": 0,
      "byteOffset": 240,
      "byteLength": 240,
      "target": 34962,
      "byteStride": 12
    },
    {
      "buffer": 0,
      "byteOffset": 480,
      "byteLength": 160,
      "target": 34962,
      "byteStride": 8
    },
    {
      "buffer": 0,
      "byteOffset": 640,
      "byteLength": 60,
      "target": 34963
    },
    {
      "buffer": 0,
      "byteOffset": 700,
      "byteLength": 336,
      "target": 34962,
      "byteStride": 12
    },
    {
      "buffer": 0,
      "byteOffset": 1036,
      "byteLength": 336,
      "target": 34962,
      "byteStride": 12
    },
    {
      "buffer": 0,
      "byteOffset": 1372,
      "byteLength": 224,
      "target": 34962,
      "byteStride": 8
    },
    {
      "buffer": 0,
      "byteOffset": 1596,
      "byteLength": 84,
      "target": 34963
    },
    {
      "buffer": 0,
      "byteOffset": 1680,
      "byteLength": 576,
      "target": 34962,
      "byteStride": 12
    },
    {
      "buffer": 0,
      "byteOffset": 2256,
      "byteLength": 576,
      "target": 34962,
      "byteStride": 12
    },
    {
      "buffer": 0,
      "byteOffset": 2832,
      "byteLength": 384,
      "target": 34962,
      "byteStride": 8
    },
    {
      "buffer": 0,
      "byteOffset": 3216,
      "byteLength": 144,
      "target": 34963
    },
    {
      "buffer": 0,
      "byteOffset": 3360,
      "byteLength": 708,
      "target": 34962,
      "byteStride": 12
    },
    {
      "buffer": 0,
      "byteOffset": 4068,
      "byteLength": 708,
      "target": 34962,
      "byteStride": 12
    },
    {
      "buffer": 0,
      "byteOffset": 4776,
      "byteLength": 472,
      "target": 34962,
      "byteStride": 8
    },
    {
      "buffer": 0,
      "byteOffset": 5248,
      "byteLength": 504,
      "target": 34963
    },
    {
      "buffer": 0,
      "byteOffset": 5752,
      "byteLength": 672,
      "target": 34962,
      "byteStride": 12
    },
    {
      "buffer": 0,
      "byteOffset": 6424,
      "byteLength": 672,
      "target": 34962,
      "byteStride": 12
    },
    {
      "buffer": 0,
      "byteOffset": 7096,
      "byteLength": 624,
      "target": 34963
    },
    {
      "buffer": 0,
      "byteOffset": 7720,
      "byteLength": 240,
      "target": 34962,
      "byteStride": 12
    },
    {
      "buffer": 0,
      "byteOffset": 7960,
      "byteLength": 240,
      "target": 34962,
      "byteStride": 12
    },
    {
      "buffer": 0,
      "byteOffset": 8200,
      "byteLength": 120,
      "target": 34963
    },
    {
      "buffer": 0,
      "byteOffset": 8320,
      "byteLength": 672,
      "target": 34962,
      "byteStride": 12
    },
    {
      "buffer": 0,
      "byteOffset": 8992,
      "byteLength": 672,
      "target": 34962,
      "byteStride": 12
    },
    {
      "buffer": 0,
      "byteOffset": 9664,
      "byteLength": 240,
      "target": 34962,
      "byteStride": 12
    },
    {
      "buffer": 0,
      "byteOffset": 9904,
      "byteLength": 240,
      "target": 34962,
      "byteStride": 12
    }
  ],
  "buffers": [
    {
      "byteLength": 10144,
      "uri": "data:application/octet-stream;base64,"
    }
  ],
  "accessors": [
    {
      "bufferView": 0,
      "componentType": 5126,
      "count": 20,
      "max": [
        1,
        1,
        1.5199499130249023
      ],
      "min": [
        -2.4267702102661133,
        -1,
        -1
      ],
      "type": "VEC3"
    },
    {
      "bufferView": 1,
      "componentType": 5126,
      "count": 20,
      "max": [
        1,
        1,
        1
      ],
      "min": [
        -1,
        0,
        -1
      ],
      "type": "VEC3"
    },
    {
      "bufferView": 2,
      "componentType": 5126,
      "count": 20,
      "max": [
        0.875,
        1
      ],
      "min": [
        0.375,
        0
      ],
      "type": "VEC2"
    },
    {
      "bufferView": 3,
      "componentType": 5123,
      "count": 30,
      "max": [
        19
      ],
      "min": [
        0
      ],
      "type": "SCALAR"
    },
    {
      "bufferView": 4,
      "componentType": 5126,
      "count": 28,
      "max": [
        1,
        68.94085693359375,
        1.5199499130249023
      ],
      "min": [
        -2.4267702102661133,
        -1,
        -1
      ],
      "type": "VEC3"
    },
    {
      "bufferView": 5,
      "componentType": 5126,
      "count": 28,
      "max": [
        1,
        1,
        1
      ],
      "min": [
        -1,
        -1,
        -1
      ],
      "type": "VEC3"
    },
    {
      "bufferView": 6,
      "componentType": 5126,
      "count": 28,
      "max": [
        0.875,
        1
      ],
      "min": [
        0.125,
        0
      ],
      "type": "VEC2"
    },
    {
      "bufferView": 7,
      "componentType": 5123,
      "count": 42,
      "max": [
        27
      ],
      "min": [
        0
      ],
      "type": "SCALAR"
    },
    {
      "bufferView": 8,
      "componentType": 5126,
      "count": 48,
      "max": [
        1,
        50.516822814941406,
        1.5199499130249023
      ],
      "min": [
        -2.4267702102661133,
        -1,
        -1
      ],
      "type": "VEC3"
    },
    {
      "bufferView": 9,
      "componentType": 5126,
      "count": 48,
      "max": [
        1,
        1,
        1
      ],
      "min": [
        -1,
        -1,
        -1
      ],
      "type": "VEC3"
    },
    {
      "bufferView": 10,
      "componentType": 5126,
      "count": 48,
      "max": [
        0.875,
        1
      ],
      "min": [
        0.125,
        0
      ],
      "type": "VEC2"
    },
    {
      "bufferView": 11,
      "componentType": 5123,
      "count": 72,
      "max": [
        47
      ],
      "min": [
        0
      ],
      "type": "SCALAR"
    },
    {
      "bufferView": 12,
      "componentType": 5126,
      "count": 59,
      "max": [
        1.0224279165267944,
        0.03751402720808983,
        1.0354293584823608
      ],
      "min": [
        -1.0322790145874023,
        -0.018949341028928757,
        -1.0225131511688232
      ],
      "type": "VEC3"
    },
    {
      "bufferView": 13,
      "componentType": 5126,
      "count": 59,
      "max": [
        0.9568196535110474,
        0.9409623146057129,
        0.9450450539588928
      ],
      "min": [
        -0.9245687127113342,
        -0.6905249357223511,
        -0.8872920870780945
      ],
      "type": "VEC3"
    },
    {
      "bufferView": 14,
      "componentType": 5126,
      "count": 59,
      "max": [
        0,
        1
      ],
      "min": [
        0,
        1
      ],
      "type": "VEC2"
    },
    {
      "bufferView": 15,
      "componentType": 5123,
      "count": 252,
      "max": [
        58
      ],
      "min": [
        0
      ],
      "type": "SCALAR"
    },
    {
      "bufferView": 16,
      "componentType": 5126,
      "count": 56,
      "max": [
        9.726414680480957,
        1.0420745611190796,
        1.5529545545578003
      ],
      "min": [
        -1.2928627729415894,
        -0.9570419192314148,
        -1.8915702104568481
      ],
      "type": "VEC3"
    },
    {
      "bufferView": 17,
      "componentType": 5126,
      "count": 56,
      "max": [
        0.9814044833183289,
        0.7906435132026672,
        0.9965178370475769
      ],
      "min": [
        -0.8948056697845459,
        -0.8431264162063599,
        -0.9683165550231934
      ],
      "type": "VEC3"
    },
    {
      "bufferView": 18,
      "componentType": 5123,
      "count": 312,
      "max": [
        55
      ],
      "min": [
        0
      ],
      "type": "SCALAR"
    },
    {
      "bufferView": 19,
      "componentType": 5126,
      "count": 20,
      "max": [
        -0.27309566736221313,
        0.8015249371528625,
        1.6143862009048462
      ],
      "min": [
        -2.9145607948303223,
        -0.7323417663574219,
        0.5203773975372314
      ],
      "type": "VEC3"
    },
    {
      "bufferView": 20,
      "componentType": 5126,
      "count": 20,
      "max": [
        0.3503012955188751,
        0.723608136177063,
        0.9965178370475769
      ],
      "min": [
        -0.9723939895629883,
        -0.20240305364131927,
        -0.9683165550231934
      ],
      "type": "VEC3"
    },
    {
      "bufferView": 21,
      "componentType": 5123,
      "count": 60,
      "max": [
        19
      ],
      "min": [
        0
      ],
      "type": "SCALAR"
    },
    {
      "bufferView": 22,
      "componentType": 5126,
      "count": 56,
      "max": [
        9.726414680480957,
        1.0420745611190796,
        1.5529545545578003
      ],
      "min": [
        -1.2928627729415894,
        -0.9570419192314148,
        -1.8915702104568481
      ],
      "type": "VEC3"
    },
    {
      "bufferView": 23,
      "componentType": 5126,
      "count": 56,
      "max": [
        0.9814044833183289,
        0.7906435132026672,
        0.9965178370475769
      ],
      "min": [
        -0.8948056697845459,
        -0.8431264162063599,
        -0.9683165550231934
      ],
      "type": "VEC3"
    },
    {
      "bufferView": 24,
      "componentType": 5126,
      "count": 20,
      "max": [
        -0.27309566736221313,
        0.8015249371528625,
        1.6143862009048462
      ],
      "min": [
        -2.9145607948303223,
        -0.7323417663574219,
        0.5203773975372314
      ],
      "type": "VEC3"
    },
    {
      "bufferView": 25,
      "componentType": 5126,
      "count": 20,
      "max": [
        0.3503012955188751,
        0.723608136177063,
        0.9965178370475769
      ],
      "min": [
        -0.9723939895629883,
        -0.20240305364131927,
        -0.9683165550231934
      ],
      "type": "VEC3"
    }
  ],
  "materials": [
    {
      "pbrMetallicRoughness": {
        "baseColorFactor": [
          0.21063192188739777,
          0.07660051435232162,
          0.03425966575741768,
          1
        ],
        "metallicFactor": 0,
        "roughnessFactor": 0.1249999850988388
      },
      "normalTexture": {
        "index": 0,
        "texCoord": 0
      },
      "doubleSided": true,
      "name": "revetement brun"
    },
    {
      "pbrMetallicRoughness": {
        "metallicFactor": 0,
        "roughnessFactor": 0.5,
        "baseColorTexture": {
          "index": 0,
          "texCoord": 0
        }
      },
      "doubleSided": true,
      "name": "revetement noir"
    },
    {
      "pbrMetallicRoughness": {
        "baseColorFactor": [
          0,
          0,
          0,
          1
        ],
        "metallicFactor": 0.48924729228019714,
        "roughnessFactor": 0.7688171863555908
      },
      "doubleSided": true,
      "name": "plastic noir"
    },
    {
      "pbrMetallicRoughness": {
        "metallicFactor": 1,
        "roughnessFactor": 0.22580644488334656
      },
      "doubleSided": true,
      "name": "metal blanc"
    },
    {
      "pbrMetallicRoughness": {
        "baseColorFactor": [
          0.03100009821355343,
          0.07665640860795975,
          0.005547658074647188,
          1
        ],
        "metallicFactor": 0.48924729228019714,
        "roughnessFactor": 0.7688171863555908
      },
      "doubleSided": true,
      "name": "plastic vert"
    }
  ],
  "textures": [
    {
      "sampler": 0,
      "source": 0,
      "name": "Plastic003_1K-JPG_Color"
    }
  ],
  "samplers": [
    {
      "magFilter": 9729,
      "minFilter": 9987,
      "wrapS": 10497,
      "wrapT": 10497
    }
  ],
  "images": [
    {
      "mimeType": "image/jpeg",
      "uri": "data:image/jpeg;base64,"
    }
  ],
  "meshes": [
    {
      "primitives": [
        {
          "mode": 4,
          "attributes": {
            "POSITION": 0,
            "NORMAL": 1,
            "TEXCOORD_0": 2
          },
          "indices": 3,
          "material": 0
        }
      ]
    },
    {
      "primitives": [
        {
          "mode": 4,
          "attributes": {
            "POSITION": 4,
            "NORMAL": 5,
            "TEXCOORD_0": 6
          },
          "indices": 7,
          "material": 1
        }
      ]
    },
    {
      "primitives": [
        {
          "mode": 4,
          "attributes": {
            "POSITION": 8,
            "NORMAL": 9,
            "TEXCOORD_0": 10
          },
          "indices": 11,
          "material": 1
        }
      ]
    },
    {
      "primitives": [
        {
          "mode": 4,
          "attributes": {
            "POSITION": 12,
            "NORMAL": 13,
            "TEXCOORD_0": 14
          },
          "indices": 15,
          "material": 2
        }
      ]
    },
    {
      "primitives": [
        {
          "mode": 4,
          "attributes": {
            "POSITION": 16,
            "NORMAL": 17
          },
          "indices": 18,
          "material": 3
        }
      ]
    },
    {
      "primitives": [
        {
          "mode": 4,
          "attributes": {
            "POSITION": 19,
            "NORMAL": 20
          },
          "indices": 21,
          "material": 4
        }
      ]
    },
    {
      "primitives": [
        {
          "mode": 4,
          "attributes": {
            "POSITION": 22,
            "NORMAL": 23
          },
          "indices": 18,
          "material": 3
        }
      ]
    },
    {
      "primitives": [
        {
          "mode": 4,
          "attributes": {
            "POSITION": 24,
            "NORMAL": 25
          },
          "indices": 21,
          "material": 4
        }
      ]
    }
  ]
}