{
  "asset": {
    "version": "2.0",
    "generator": "THREE.GLTFExporter"
  },
  "scenes": [
    {
      "name": "Scene",
      "nodes": [
        7
      ]
    }
  ],
  "scene": 0,
  "nodes": [
    {
      "name": "bas_cabine_Vj",
      "mesh": 0
    },
    {
      "name": "bas_cabine_Vj_1",
      "mesh": 1
    },
    {
      "name": "bas_cabine_Vj_2",
      "mesh": 2
    },
    {
      "name": "bas_cabine_Vj_3",
      "mesh": 3
    },
    {
      "name": "bas_cabine_Vj_4",
      "mesh": 4
    },
    {
      "matrix": [
        0.09845131635665894,
        0,
        0,
        0,
        0,
        -0.13003966212272644,
        0,
        0,
        0,
        0,
        0.252632200717926,
        0,
        6.133901119232178,
        0.11579300463199615,
        0.458183228969574,
        1
      ],
      "name": "cabine_Vj",
      "extras": {
        "name": "cabine Vj"
      },
      "children": [
        0,
        1,
        2,
        3,
        4
      ]
    },
    {
      "matrix": [
        1,
        0,
        0,
        0,
        0,
        1,
        0,
        0,
        0,
        0,
        1,
        0,
        -0.5027121901512146,
        0,
        0,
        1
      ],
      "name": "cabine_Vjing",
      "extras": {
        "name": "cabine Vjing"
      },
      "children": [
        5
      ]
    },
    {
      "name": "v7_peniche mecanique.glb",
      "children": [
        6
      ]
    }
  ],
  "bufferViews": [
    {
      "buffer": 0,
      "byteOffset": 0,
      "byteLength": 11712,
      "target": 34962,
      "byteStride": 12
    },
    {
      "buffer": 0,
      "byteOffset": 11712,
      "byteLength": 11712,
      "target": 34962,
      "byteStride": 12
    },
    {
      "buffer": 0,
      "byteOffset": 23424,
      "byteLength": 7808,
      "target": 34962,
      "byteStride": 8
    },
    {
      "buffer": 0,
      "byteOffset": 31232,
      "byteLength": 2424,
      "target": 34963
    },
    {
      "buffer": 0,
      "byteOffset": 33656,
      "byteLength": 96,
      "target": 34962,
      "byteStride": 12
    },
    {
      "buffer": 0,
      "byteOffset": 33752,
      "byteLength": 96,
      "target": 34962,
      "byteStride": 12
    },
    {
      "buffer": 0,
      "byteOffset": 33848,
      "byteLength": 64,
      "target": 34962,
      "byteStride": 8
    },
    {
      "buffer": 0,
      "byteOffset": 33912,
      "byteLength": 24,
      "target": 34963
    },
    {
      "buffer": 0,
      "byteOffset": 33936,
      "byteLength": 8424,
      "target": 34962,
      "byteStride": 12
    },
    {
      "buffer": 0,
      "byteOffset": 42360,
      "byteLength": 8424,
      "target": 34962,
      "byteStride": 12
    },
    {
      "buffer": 0,
      "byteOffset": 50784,
      "byteLength": 5616,
      "target": 34962,
      "byteStride": 8
    },
    {
      "buffer": 0,
      "byteOffset": 56400,
      "byteLength": 2220,
      "target": 34963
    },
    {
      "buffer": 0,
      "byteOffset": 58620,
      "byteLength": 1728,
      "target": 34962,
      "byteStride": 12
    },
    {
      "buffer": 0,
      "byteOffset": 60348,
      "byteLength": 1728,
      "target": 34962,
      "byteStride": 12
    },
    {
      "buffer": 0,
      "byteOffset": 62076,
      "byteLength": 1152,
      "target": 34962,
      "byteStride": 8
    },
    {
      "buffer": 0,
      "byteOffset": 63228,
      "byteLength": 492,
      "target": 34963
    },
    {
      "buffer": 0,
      "byteOffset": 63720,
      "byteLength": 48,
      "target": 34962,
      "byteStride": 12
    },
    {
      "buffer": 0,
      "byteOffset": 63768,
      "byteLength": 48,
      "target": 34962,
      "byteStride": 12
    },
    {
      "buffer": 0,
      "byteOffset": 63816,
      "byteLength": 32,
      "target": 34962,
      "byteStride": 8
    },
    {
      "buffer": 0,
      "byteOffset": 63848,
      "byteLength": 12,
      "target": 34963
    }
  ],
  "buffers": [
    {
      "byteLength": 63860,
      "uri": "data:application/octet-stream;base64,"
    }
  ],
  "accessors": [
    {
      "bufferView": 0,
      "componentType": 5126,
      "count": 976,
      "max": [
        1.3199522495269775,
        1,
        1
      ],
      "min": [
        -1.723463773727417,
        -3.1937618255615234,
        -1.1509602069854736
      ],
      "type": "VEC3"
    },
    {
      "bufferView": 1,
      "componentType": 5126,
      "count": 976,
      "max": [
        1,
        1,
        1
      ],
      "min": [
        -1,
        -1,
        -1
      ],
      "type": "VEC3"
    },
    {
      "bufferView": 2,
      "componentType": 5126,
      "count": 976,
      "max": [
        0.875,
        1
      ],
      "min": [
        0,
        0
      ],
      "type": "VEC2"
    },
    {
      "bufferView": 3,
      "componentType": 5123,
      "count": 1212,
      "max": [
        975
      ],
      "min": [
        0
      ],
      "type": "SCALAR"
    },
    {
      "bufferView": 4,
      "componentType": 5126,
      "count": 8,
      "max": [
        1.2009189128875732,
        -1.4621623754501343,
        0.9090856313705444
      ],
      "min": [
        -1.6828434467315674,
        -3.1937618255615234,
        -1.1370216608047485
      ],
      "type": "VEC3"
    },
    {
      "bufferView": 5,
      "componentType": 5126,
      "count": 8,
      "max": [
        0,
        0,
        1
      ],
      "min": [
        -0.999478280544281,
        0,
        0.03229929879307747
      ],
      "type": "VEC3"
    },
    {
      "bufferView": 6,
      "componentType": 5126,
      "count": 8,
      "max": [
        0.625,
        1
      ],
      "min": [
        0.375,
        0.25
      ],
      "type": "VEC2"
    },
    {
      "bufferView": 7,
      "componentType": 5123,
      "count": 12,
      "max": [
        7
      ],
      "min": [
        0
      ],
      "type": "SCALAR"
    },
    {
      "bufferView": 8,
      "componentType": 5126,
      "count": 702,
      "max": [
        0.07121473550796509,
        -0.9850966930389404,
        0.20128294825553894
      ],
      "min": [
        -1.3275141716003418,
        -1.529163122177124,
        -0.8136317729949951
      ],
      "type": "VEC3"
    },
    {
      "bufferView": 9,
      "componentType": 5126,
      "count": 702,
      "max": [
        0.8354955911636353,
        0.9895554184913635,
        1
      ],
      "min": [
        -0.8354955911636353,
        -0.9895554184913635,
        -1
      ],
      "type": "VEC3"
    },
    {
      "bufferView": 10,
      "componentType": 5126,
      "count": 702,
      "max": [
        0,
        1
      ],
      "min": [
        0,
        1
      ],
      "type": "VEC2"
    },
    {
      "bufferView": 11,
      "componentType": 5123,
      "count": 1110,
      "max": [
        701
      ],
      "min": [
        0
      ],
      "type": "SCALAR"
    },
    {
      "bufferView": 12,
      "componentType": 5126,
      "count": 144,
      "max": [
        -0.18664038181304932,
        -0.9965644478797913,
        0.9116750955581665
      ],
      "min": [
        -1.508516550064087,
        -2.1676669120788574,
        0.43431970477104187
      ],
      "type": "VEC3"
    },
    {
      "bufferView": 13,
      "componentType": 5126,
      "count": 144,
      "max": [
        0.659021258354187,
        1,
        0.9978063702583313
      ],
      "min": [
        -0.659021258354187,
        -1,
        -0.9978063702583313
      ],
      "type": "VEC3"
    },
    {
      "bufferView": 14,
      "componentType": 5126,
      "count": 144,
      "max": [
        0.875,
        1
      ],
      "min": [
        0.125,
        0
      ],
      "type": "VEC2"
    },
    {
      "bufferView": 15,
      "componentType": 5123,
      "count": 246,
      "max": [
        143
      ],
      "min": [
        0
      ],
      "type": "SCALAR"
    },
    {
      "bufferView": 16,
      "componentType": 5126,
      "count": 4,
      "max": [
        -0.47462379932403564,
        -1.5245699882507324,
        0.8978527784347534
      ],
      "min": [
        -1.4720557928085327,
        -2.161220073699951,
        0.4827112555503845
      ],
      "type": "VEC3"
    },
    {
      "bufferView": 17,
      "componentType": 5126,
      "count": 4,
      "max": [
        0.38430291414260864,
        0,
        -0.9232070446014404
      ],
      "min": [
        0.38430291414260864,
        0,
        -0.9232070446014404
      ],
      "type": "VEC3"
    },
    {
      "bufferView": 18,
      "componentType": 5126,
      "count": 4,
      "max": [
        0.6225187182426453,
        0.49751877784729004
      ],
      "min": [
        0.37748122215270996,
        0.25248128175735474
      ],
      "type": "VEC2"
    },
    {
      "bufferView": 19,
      "componentType": 5123,
      "count": 6,
      "max": [
        3
      ],
      "min": [
        0
      ],
      "type": "SCALAR"
    }
  ],
  "materials": [
    {
      "pbrMetallicRoughness": {
        "baseColorFactor": [
          0,
          0,
          0,
          1
        ],
        "metallicFactor": 1,
        "roughnessFactor": 0.22580644488334656
      },
      "doubleSided": true,
      "name": "metal noir"
    },
    {
      "pbrMetallicRoughness": {
        "baseColorFactor": [
          0,
          0.00008491658081766218,
          0.016706833615899086,
          0.6317239999771118
        ],
        "metallicFactor": 1,
        "roughnessFactor": 0.8924731016159058
      },
      "alphaMode": "BLEND",
      "doubleSided": true,
      "name": "TRANSPARENTcabine vj"
    },
    {
      "pbrMetallicRoughness": {
        "baseColorFactor": [
          0.10183495283126831,
          0.10183495283126831,
          0.10183495283126831,
          1
        ],
        "metallicFactor": 1,
        "roughnessFactor": 0.22580644488334656
      },
      "doubleSided": true,
      "name": "metal gris"
    },
    {
      "pbrMetallicRoughness": {
        "baseColorFactor": [
          0,
          0,
          0,
          1
        ],
        "metallicFactor": 0.48924729228019714,
        "roughnessFactor": 0.7688171863555908
      },
      "doubleSided": true,
      "name": "plastic noir"
    },
    {
      "pbrMetallicRoughness": {
        "baseColorFactor": [
          0.800000011920929,
          0.800000011920929,
          0.800000011920929,
          1
        ],
        "metallicFactor": 0,
        "roughnessFactor": 0.5
      },
      "emissiveFactor": [
        0,
        0.29568490386009216,
        1
      ],
      "doubleSided": true,
      "name": "ECRAN vjing",
      "extensions": {
        "KHR_materials_emissive_strength": {
          "emissiveStrength": 1.3999998569488525
        }
      }
    }
  ],
  "meshes": [
    {
      "primitives": [
        {
          "mode": 4,
          "attributes": {
            "POSITION": 0,
            "NORMAL": 1,
            "TEXCOORD_0": 2
          },
          "indices": 3,
          "material": 0
        }
      ]
    },
    {
      "primitives": [
        {
          "mode": 4,
          "attributes": {
            "POSITION": 4,
            "NORMAL": 5,
            "TEXCOORD_0": 6
          },
          "indices": 7,
          "material": 1
        }
      ]
    },
    {
      "primitives": [
        {
          "mode": 4,
          "attributes": {
            "POSITION": 8,
            "NORMAL": 9,
            "TEXCOORD_0": 10
          },
          "indices": 11,
          "material": 2
        }
      ]
    },
    {
      "primitives": [
        {
          "mode": 4,
          "attributes": {
            "POSITION": 12,
            "NORMAL": 13,
            "TEXCOORD_0": 14
          },
          "indices": 15,
          "material": 3
        }
      ]
    },
    {
      "primitives": [
        {
          "mode": 4,
          "attributes": {
            "POSITION": 16,
            "NORMAL": 17,
            "TEXCOORD_0": 18
          },
          "indices": 19,
          "material": 4
        }
      ]
    }
  ],
  "extensionsUsed": [
    "KHR_materials_emissive_strength"
  ]
}