{
  "asset": {
    "version": "2.0",
    "generator": "THREE.GLTFExporter"
  },
  "scenes": [
    {
      "name": "Scene",
      "nodes": [
        39
      ]
    }
  ],
  "scene": 0,
  "nodes": [
    {
      "matrix": [
        0.25385984377565396,
        0,
        0.35588661599543425,
        0,
        0,
        0.43714994192123413,
        0,
        0,
        -0.35588661599543425,
        0,
        0.25385984377565396,
        0,
        -3.2173609733581543,
        -0.026532649993896484,
        -0.05403648316860199,
        1
      ],
      "name": "chaise_thonet",
      "extras": {
        "name": "chaise thonet"
      },
      "mesh": 0
    },
    {
      "matrix": [
        0.41483203057477697,
        0,
        0.1378929390385281,
        0,
        0,
        0.43714994192123413,
        0,
        0,
        -0.1378929390385281,
        0,
        0.41483203057477697,
        0,
        -3.8731987476348877,
        -0.026532649993896484,
        -0.3554185926914215,
        1
      ],
      "name": "chaise_thonet001",
      "extras": {
        "name": "chaise thonet.001"
      },
      "mesh": 0
    },
    {
      "matrix": [
        0.41483203057477697,
        0,
        0.1378929390385281,
        0,
        0,
        0.43714994192123413,
        0,
        0,
        -0.1378929390385281,
        0,
        0.41483203057477697,
        0,
        -3.6343677043914795,
        -0.026532649993896484,
        -0.28907662630081177,
        1
      ],
      "name": "chaise_thonet002",
      "extras": {
        "name": "chaise thonet.002"
      },
      "mesh": 0
    },
    {
      "matrix": [
        0.4344830896939101,
        0,
        0.048213240016138685,
        0,
        0,
        0.43714994192123413,
        0,
        0,
        -0.048213240016138685,
        0,
        0.4344830896939101,
        0,
        -3.3897910118103027,
        -0.043533921241760254,
        -0.3649756908416748,
        1
      ],
      "name": "chaise_thonet003",
      "extras": {
        "name": "chaise thonet.003"
      },
      "mesh": 0
    },
    {
      "matrix": [
        0.0006947105906996464,
        0,
        0.4371494298271335,
        0,
        0,
        0.43714994192123413,
        0,
        0,
        -0.4371494298271335,
        0,
        0.0006947105906996464,
        0,
        -3.160496711730957,
        -0.026532649993896484,
        0.21512240171432495,
        1
      ],
      "name": "chaise_thonet004",
      "extras": {
        "name": "chaise thonet.004"
      },
      "mesh": 0
    },
    {
      "matrix": [
        -0.39725026349450787,
        0,
        0.18246183143648032,
        0,
        0,
        0.43714994192123413,
        0,
        0,
        -0.18246183143648032,
        0,
        -0.39725026349450787,
        0,
        -3.2818078994750977,
        -0.026532649993896484,
        0.4691173732280731,
        1
      ],
      "name": "chaise_thonet005",
      "extras": {
        "name": "chaise thonet.005"
      },
      "mesh": 0
    },
    {
      "matrix": [
        -0.41008943575423507,
        0,
        0.15141578060612043,
        0,
        0,
        0.43714994192123413,
        0,
        0,
        -0.15141578060612043,
        0,
        -0.41008943575423507,
        0,
        -3.5604441165924072,
        -0.026532649993896484,
        0.5771600008010864,
        1
      ],
      "name": "chaise_thonet006",
      "extras": {
        "name": "chaise thonet.006"
      },
      "mesh": 0
    },
    {
      "matrix": [
        -0.08215820968987644,
        0,
        -0.42936011765527393,
        0,
        0,
        0.43714994192123413,
        0,
        0,
        0.42936011765527393,
        0,
        -0.08215820968987644,
        0,
        -3.814495801925659,
        -0.0321502685546875,
        0.6653137803077698,
        1
      ],
      "name": "chaise_thonet007",
      "extras": {
        "name": "chaise thonet.007"
      },
      "mesh": 0
    },
    {
      "name": "etage_siege_brun_haut_LOW004",
      "mesh": 1
    },
    {
      "name": "etage_siege_brun_haut_LOW004_1",
      "mesh": 2
    },
    {
      "matrix": [
        0.11140135847900663,
        0,
        -0.16082435598714925,
        0,
        0,
        0.19563926756381989,
        0,
        0,
        0.16082435598714925,
        0,
        0.11140135847900663,
        0,
        -3.0861101150512695,
        -0.19505774974822998,
        -0.3898848295211792,
        1
      ],
      "name": "siege_brun_haut_LOW",
      "extras": {
        "name": "siege_brun_haut_LOW"
      },
      "children": [
        8,
        9
      ]
    },
    {
      "name": "etage_siege_brun_haut_LOW004",
      "mesh": 1
    },
    {
      "name": "etage_siege_brun_haut_LOW004_1",
      "mesh": 2
    },
    {
      "matrix": [
        0.0624182747756077,
        0,
        0.18541489566873262,
        0,
        0,
        0.19563926756381989,
        0,
        0,
        -0.18541489566873262,
        0,
        0.0624182747756077,
        0,
        -2.6723690032958984,
        -0.19505774974822998,
        -0.3898848295211792,
        1
      ],
      "name": "siege_brun_haut_LOW001",
      "extras": {
        "name": "siege_brun_haut_LOW.001"
      },
      "children": [
        11,
        12
      ]
    },
    {
      "name": "etage_siege_brun_haut_LOW004",
      "mesh": 1
    },
    {
      "name": "etage_siege_brun_haut_LOW004_1",
      "mesh": 2
    },
    {
      "matrix": [
        -0.1397292151949772,
        0,
        0.1369323494782611,
        0,
        0,
        0.19563926756381989,
        0,
        0,
        -0.1369323494782611,
        0,
        -0.1397292151949772,
        0,
        -2.743966579437256,
        -0.19505774974822998,
        -0.10747268795967102,
        1
      ],
      "name": "siege_brun_haut_LOW002",
      "extras": {
        "name": "siege_brun_haut_LOW.002"
      },
      "children": [
        14,
        15
      ]
    },
    {
      "name": "etage_siege_brun_haut_LOW004",
      "mesh": 1
    },
    {
      "name": "etage_siege_brun_haut_LOW004_1",
      "mesh": 2
    },
    {
      "matrix": [
        -0.09161608747192254,
        0,
        -0.1728618991037817,
        0,
        0,
        0.19563926756381989,
        0,
        0,
        0.1728618991037817,
        0,
        -0.09161608747192254,
        0,
        -3.192397117614746,
        -0.19505774974822998,
        0.6820880174636841,
        1
      ],
      "name": "siege_brun_haut_LOW003",
      "extras": {
        "name": "siege_brun_haut_LOW.003"
      },
      "children": [
        17,
        18
      ]
    },
    {
      "name": "etage_siege_brun_haut_LOW004",
      "mesh": 1
    },
    {
      "name": "etage_siege_brun_haut_LOW004_1",
      "mesh": 2
    },
    {
      "matrix": [
        0.03529936886498139,
        0,
        0.1924283884899839,
        0,
        0,
        0.19563926756381989,
        0,
        0,
        -0.1924283884899839,
        0,
        0.03529936886498139,
        0,
        -2.8410301208496094,
        -0.19505774974822998,
        0.5900852084159851,
        1
      ],
      "name": "siege_brun_haut_LOW004",
      "extras": {
        "name": "siege_brun_haut_LOW.004"
      },
      "children": [
        20,
        21
      ]
    },
    {
      "name": "etage_tabouret_haut_LOW004",
      "mesh": 3
    },
    {
      "name": "etage_tabouret_haut_LOW004_1",
      "mesh": 4
    },
    {
      "matrix": [
        0.1743451952934265,
        0,
        0,
        0,
        0,
        0.1743451952934265,
        0,
        0,
        0,
        0,
        0.1743451952934265,
        0,
        -2.0666580200195312,
        -0.1972101926803589,
        -0.3507140874862671,
        1
      ],
      "name": "tabouret_haut_LOW",
      "extras": {
        "name": "tabouret_haut_LOW"
      },
      "children": [
        23,
        24
      ]
    },
    {
      "name": "etage_tabouret_haut_LOW004",
      "mesh": 3
    },
    {
      "name": "etage_tabouret_haut_LOW004_1",
      "mesh": 4
    },
    {
      "matrix": [
        0.06100263480228904,
        0,
        -0.16332460185507325,
        0,
        0,
        0.1743451952934265,
        0,
        0,
        0.16332460185507325,
        0,
        0.06100263480228904,
        0,
        -1.8461380004882812,
        -0.1972101926803589,
        -0.39759624004364014,
        1
      ],
      "name": "tabouret_haut_LOW001",
      "extras": {
        "name": "tabouret_haut_LOW.001"
      },
      "children": [
        26,
        27
      ]
    },
    {
      "name": "etage_tabouret_haut_LOW004",
      "mesh": 3
    },
    {
      "name": "etage_tabouret_haut_LOW004_1",
      "mesh": 4
    },
    {
      "matrix": [
        0.13525382806686828,
        0,
        0.11001204188488657,
        0,
        0,
        0.1743451952934265,
        0,
        0,
        -0.11001204188488657,
        0,
        0.13525382806686828,
        0,
        -1.6141624450683594,
        -0.1972101926803589,
        -0.314479261636734,
        1
      ],
      "name": "tabouret_haut_LOW002",
      "extras": {
        "name": "tabouret_haut_LOW.002"
      },
      "children": [
        29,
        30
      ]
    },
    {
      "name": "etage_tabouret_haut_LOW004",
      "mesh": 3
    },
    {
      "name": "etage_tabouret_haut_LOW004_1",
      "mesh": 4
    },
    {
      "matrix": [
        -0.09178427547224025,
        0,
        0.14822920357461478,
        0,
        0,
        0.1743451952934265,
        0,
        0,
        -0.14822920357461478,
        0,
        -0.09178427547224025,
        0,
        -1.4136896133422852,
        -0.1972101926803589,
        -0.3347525894641876,
        1
      ],
      "name": "tabouret_haut_LOW003",
      "extras": {
        "name": "tabouret_haut_LOW.003"
      },
      "children": [
        32,
        33
      ]
    },
    {
      "name": "etage_tabouret_haut_LOW004",
      "mesh": 3
    },
    {
      "name": "etage_tabouret_haut_LOW004_1",
      "mesh": 4
    },
    {
      "matrix": [
        -0.11665429623764935,
        0,
        -0.12956859127999634,
        0,
        0,
        0.1743451952934265,
        0,
        0,
        0.12956859127999634,
        0,
        -0.11665429623764935,
        0,
        -1.1788501739501953,
        -0.1972101926803589,
        -0.3668370246887207,
        1
      ],
      "name": "tabouret_haut_LOW004",
      "extras": {
        "name": "tabouret_haut_LOW.004"
      },
      "children": [
        35,
        36
      ]
    },
    {
      "matrix": [
        1,
        0,
        0,
        0,
        0,
        1,
        0,
        0,
        0,
        0,
        1,
        0,
        7.263944625854492,
        1.0112348794937134,
        -0.14433634281158447,
        1
      ],
      "name": "chaises",
      "extras": {
        "name": "chaises"
      },
      "children": [
        0,
        1,
        2,
        3,
        4,
        5,
        6,
        7,
        10,
        13,
        16,
        19,
        22,
        25,
        28,
        31,
        34,
        37
      ]
    },
    {
      "name": "v7_peniche mecanique.glb",
      "children": [
        38
      ]
    }
  ],
  "bufferViews": [
    {
      "buffer": 0,
      "byteOffset": 0,
      "byteLength": 1512,
      "target": 34962,
      "byteStride": 12
    },
    {
      "buffer": 0,
      "byteOffset": 1512,
      "byteLength": 1512,
      "target": 34962,
      "byteStride": 12
    },
    {
      "buffer": 0,
      "byteOffset": 3024,
      "byteLength": 1008,
      "target": 34962,
      "byteStride": 8
    },
    {
      "buffer": 0,
      "byteOffset": 4032,
      "byteLength": 924,
      "target": 34963
    },
    {
      "buffer": 0,
      "byteOffset": 4956,
      "byteLength": 624,
      "target": 34962,
      "byteStride": 12
    },
    {
      "buffer": 0,
      "byteOffset": 5580,
      "byteLength": 624,
      "target": 34962,
      "byteStride": 12
    },
    {
      "buffer": 0,
      "byteOffset": 6204,
      "byteLength": 416,
      "target": 34962,
      "byteStride": 8
    },
    {
      "buffer": 0,
      "byteOffset": 6620,
      "byteLength": 408,
      "target": 34963
    },
    {
      "buffer": 0,
      "byteOffset": 7028,
      "byteLength": 1260,
      "target": 34962,
      "byteStride": 12
    },
    {
      "buffer": 0,
      "byteOffset": 8288,
      "byteLength": 1260,
      "target": 34962,
      "byteStride": 12
    },
    {
      "buffer": 0,
      "byteOffset": 9548,
      "byteLength": 840,
      "target": 34962,
      "byteStride": 8
    },
    {
      "buffer": 0,
      "byteOffset": 10388,
      "byteLength": 684,
      "target": 34963
    },
    {
      "buffer": 0,
      "byteOffset": 11072,
      "byteLength": 624,
      "target": 34962,
      "byteStride": 12
    },
    {
      "buffer": 0,
      "byteOffset": 11696,
      "byteLength": 624,
      "target": 34962,
      "byteStride": 12
    },
    {
      "buffer": 0,
      "byteOffset": 12320,
      "byteLength": 416,
      "target": 34962,
      "byteStride": 8
    },
    {
      "buffer": 0,
      "byteOffset": 12736,
      "byteLength": 156,
      "target": 34962,
      "byteStride": 12
    },
    {
      "buffer": 0,
      "byteOffset": 12892,
      "byteLength": 156,
      "target": 34962,
      "byteStride": 12
    },
    {
      "buffer": 0,
      "byteOffset": 13048,
      "byteLength": 104,
      "target": 34962,
      "byteStride": 8
    },
    {
      "buffer": 0,
      "byteOffset": 13152,
      "byteLength": 132,
      "target": 34963
    }
  ],
  "buffers": [
    {
      "byteLength": 13284,
      "uri": "data:application/octet-stream;base64,"
    }
  ],
  "accessors": [
    {
      "bufferView": 0,
      "componentType": 5126,
      "count": 126,
      "max": [
        0.2661609649658203,
        0.48386865854263306,
        0.26133590936660767
      ],
      "min": [
        -0.25264889001846313,
        -0.3897014558315277,
        -0.2600899636745453
      ],
      "type": "VEC3"
    },
    {
      "bufferView": 1,
      "componentType": 5126,
      "count": 126,
      "max": [
        0.9982193112373352,
        0.9848048686981201,
        0.9794531464576721
      ],
      "min": [
        -0.9922342896461487,
        -0.9742544889450073,
        -0.9949197173118591
      ],
      "type": "VEC3"
    },
    {
      "bufferView": 2,
      "componentType": 5126,
      "count": 126,
      "max": [
        1.0009965896606445,
        1
      ],
      "min": [
        -0.00001706025068415329,
        0
      ],
      "type": "VEC2"
    },
    {
      "bufferView": 3,
      "componentType": 5123,
      "count": 462,
      "max": [
        125
      ],
      "min": [
        0
      ],
      "type": "SCALAR"
    },
    {
      "bufferView": 4,
      "componentType": 5126,
      "count": 52,
      "max": [
        0.30147719383239746,
        1.6083149909973145,
        0.4299589693546295
      ],
      "min": [
        -0.44182971119880676,
        0.0566558837890625,
        -0.3287978172302246
      ],
      "type": "VEC3"
    },
    {
      "bufferView": 5,
      "componentType": 5126,
      "count": 52,
      "max": [
        0.9995286464691162,
        0.9999964237213135,
        0.7647382020950317
      ],
      "min": [
        -0.7978208661079407,
        -0.9022381901741028,
        -1
      ],
      "type": "VEC3"
    },
    {
      "bufferView": 6,
      "componentType": 5126,
      "count": 52,
      "max": [
        1,
        1
      ],
      "min": [
        0,
        0
      ],
      "type": "VEC2"
    },
    {
      "bufferView": 7,
      "componentType": 5123,
      "count": 204,
      "max": [
        51
      ],
      "min": [
        0
      ],
      "type": "SCALAR"
    },
    {
      "bufferView": 8,
      "componentType": 5126,
      "count": 105,
      "max": [
        0.28680965304374695,
        2.308023691177368,
        0.4223305881023407
      ],
      "min": [
        -0.39120596647262573,
        1.5218554735183716,
        -0.3416639268398285
      ],
      "type": "VEC3"
    },
    {
      "bufferView": 9,
      "componentType": 5126,
      "count": 105,
      "max": [
        0.8071654438972473,
        0.9995289444923401,
        0.9995289444923401
      ],
      "min": [
        -0.803878903388977,
        -0.9995289444923401,
        -0.9979443550109863
      ],
      "type": "VEC3"
    },
    {
      "bufferView": 10,
      "componentType": 5126,
      "count": 105,
      "max": [
        1,
        1
      ],
      "min": [
        0,
        0
      ],
      "type": "VEC2"
    },
    {
      "bufferView": 11,
      "componentType": 5123,
      "count": 342,
      "max": [
        104
      ],
      "min": [
        0
      ],
      "type": "SCALAR"
    },
    {
      "bufferView": 12,
      "componentType": 5126,
      "count": 52,
      "max": [
        0.30147719383239746,
        1.6083149909973145,
        0.4299589693546295
      ],
      "min": [
        -0.44182971119880676,
        0.0566558837890625,
        -0.3287978172302246
      ],
      "type": "VEC3"
    },
    {
      "bufferView": 13,
      "componentType": 5126,
      "count": 52,
      "max": [
        0.9995286464691162,
        0.9999964237213135,
        0.7647382020950317
      ],
      "min": [
        -0.7978208661079407,
        -0.9022381901741028,
        -1
      ],
      "type": "VEC3"
    },
    {
      "bufferView": 14,
      "componentType": 5126,
      "count": 52,
      "max": [
        1,
        1
      ],
      "min": [
        0,
        0
      ],
      "type": "VEC2"
    },
    {
      "bufferView": 15,
      "componentType": 5126,
      "count": 13,
      "max": [
        0.4813807010650635,
        1.751450777053833,
        0.549464225769043
      ],
      "min": [
        -0.6112613677978516,
        1.5895838737487793,
        -0.49726274609565735
      ],
      "type": "VEC3"
    },
    {
      "bufferView": 16,
      "componentType": 5126,
      "count": 13,
      "max": [
        0.831821620464325,
        0.5969096422195435,
        0.8254027962684631
      ],
      "min": [
        -0.8009129166603088,
        -0.6746954917907715,
        -0.7992907762527466
      ],
      "type": "VEC3"
    },
    {
      "bufferView": 17,
      "componentType": 5126,
      "count": 13,
      "max": [
        0,
        1
      ],
      "min": [
        0,
        1
      ],
      "type": "VEC2"
    },
    {
      "bufferView": 18,
      "componentType": 5123,
      "count": 66,
      "max": [
        12
      ],
      "min": [
        0
      ],
      "type": "SCALAR"
    }
  ],
  "materials": [
    {
      "pbrMetallicRoughness": {
        "baseColorFactor": [
          0.04017406329512596,
          0.011523370631039143,
          0.0035238685086369514,
          1
        ],
        "metallicFactor": 1,
        "roughnessFactor": 0.9412878751754761
      },
      "doubleSided": true,
      "name": "bois chaise thonet LOW"
    },
    {
      "pbrMetallicRoughness": {
        "metallicFactor": 1,
        "roughnessFactor": 0.22580644488334656
      },
      "doubleSided": true,
      "name": "metal blanc"
    },
    {
      "pbrMetallicRoughness": {
        "baseColorFactor": [
          0.055542659014463425,
          0.034070830792188644,
          0.021753113716840744,
          1
        ],
        "metallicFactor": 0.018518518656492233,
        "roughnessFactor": 0.3888888657093048
      },
      "doubleSided": true,
      "name": "brun siege moderne"
    },
    {
      "pbrMetallicRoughness": {
        "baseColorFactor": [
          0.04017406329512596,
          0.011523370631039143,
          0.0035238685086369514,
          1
        ],
        "metallicFactor": 0,
        "roughnessFactor": 0.4104236960411072
      },
      "doubleSided": true,
      "name": "brun tabouret"
    }
  ],
  "meshes": [
    {
      "primitives": [
        {
          "mode": 4,
          "attributes": {
            "POSITION": 0,
            "NORMAL": 1,
            "TEXCOORD_0": 2
          },
          "indices": 3,
          "material": 0
        }
      ]
    },
    {
      "primitives": [
        {
          "mode": 4,
          "attributes": {
            "POSITION": 4,
            "NORMAL": 5,
            "TEXCOORD_0": 6
          },
          "indices": 7,
          "material": 1
        }
      ]
    },
    {
      "primitives": [
        {
          "mode": 4,
          "attributes": {
            "POSITION": 8,
            "NORMAL": 9,
            "TEXCOORD_0": 10
          },
          "indices": 11,
          "material": 2
        }
      ]
    },
    {
      "primitives": [
        {
          "mode": 4,
          "attributes": {
            "POSITION": 12,
            "NORMAL": 13,
            "TEXCOORD_0": 14
          },
          "indices": 7,
          "material": 1
        }
      ]
    },
    {
      "primitives": [
        {
          "mode": 4,
          "attributes": {
            "POSITION": 15,
            "NORMAL": 16,
            "TEXCOORD_0": 17
          },
          "indices": 18,
          "material": 3
        }
      ]
    }
  ]
}