{
  "asset": {
    "version": "2.0",
    "generator": "THREE.GLTFExporter"
  },
  "scenes": [
    {
      "name": "Scene",
      "nodes": [
        13
      ]
    }
  ],
  "scene": 0,
  "nodes": [
    {
      "name": "etage_marches",
      "mesh": 0
    },
    {
      "name": "etage_marches_1",
      "mesh": 1
    },
    {
      "name": "etage_marches_2",
      "mesh": 2
    },
    {
      "matrix": [
        -1.0451170749688374e-8,
        0,
        -0.07778550984511072,
        0,
        0,
        0.027783280238509178,
        0,
        0,
        0.26667231924080903,
        0,
        -3.582978305536279e-8,
        0,
        3.3538835048675537,
        -0.3575311303138733,
        0.593786358833313,
        1
      ],
      "name": "marches",
      "extras": {
        "name": "marches"
      },
      "children": [
        0,
        1,
        2
      ]
    },
    {
      "name": "etage_mur_escalier",
      "mesh": 3
    },
    {
      "name": "etage_mur_escalier_1",
      "mesh": 4
    },
    {
      "matrix": [
        0.8807323575019836,
        0,
        0,
        0,
        0,
        0.8058759570121765,
        0,
        0,
        0,
        0,
        0.07582948356866837,
        0,
        4.446474075317383,
        -0.6556954383850098,
        0.5224019885063171,
        1
      ],
      "name": "mur_escalier",
      "extras": {
        "name": "mur escalier"
      },
      "children": [
        4,
        5
      ]
    },
    {
      "name": "etage_mur_escalier_bar",
      "mesh": 5
    },
    {
      "name": "etage_mur_escalier_bar_1",
      "mesh": 6
    },
    {
      "matrix": [
        0.025575755164027214,
        0,
        0,
        0,
        0,
        0.7445959448814392,
        0,
        0,
        0,
        0,
        0.3871621787548065,
        0,
        3.0940768718719482,
        0.26519954204559326,
        0.8361140489578247,
        1
      ],
      "name": "mur_escalier_bar",
      "extras": {
        "name": "mur escalier bar"
      },
      "children": [
        7,
        8
      ]
    },
    {
      "matrix": [
        -0.16330095441783676,
        -0.48019688012121087,
        -0.8618258374609398,
        0,
        -0.5012282607872098,
        -0.7120340342254181,
        0.491709053609628,
        0,
        -0.8497664669670271,
        0.5122680149446213,
        -0.12441242437204814,
        0,
        5.14842414855957,
        -0.799822986125946,
        0.7109585404396057,
        1
      ],
      "name": "rambardes_escalier",
      "extras": {
        "name": "rambardes escalier"
      },
      "mesh": 7
    },
    {
      "matrix": [
        0.8089373111724854,
        0,
        0,
        0,
        0,
        0.004999999888241291,
        0,
        0,
        0,
        0,
        -0.1140965074300766,
        0,
        4.3763017654418945,
        0.15519845485687256,
        0.5606743097305298,
        1
      ],
      "name": "table_comptoir",
      "extras": {
        "name": "table comptoir"
      },
      "mesh": 8
    },
    {
      "matrix": [
        1,
        0,
        0,
        0,
        0,
        1,
        0,
        0,
        0,
        0,
        1,
        0,
        2.934830904006958,
        1.1356229782104492,
        -0.41190260648727417,
        1
      ],
      "name": "escalier",
      "extras": {
        "name": "escalier"
      },
      "children": [
        3,
        6,
        9,
        10,
        11
      ]
    },
    {
      "name": "v7_peniche mecanique.glb",
      "children": [
        12
      ]
    }
  ],
  "bufferViews": [
    {
      "buffer": 0,
      "byteOffset": 0,
      "byteLength": 27648,
      "target": 34962,
      "byteStride": 12
    },
    {
      "buffer": 0,
      "byteOffset": 27648,
      "byteLength": 27648,
      "target": 34962,
      "byteStride": 12
    },
    {
      "buffer": 0,
      "byteOffset": 55296,
      "byteLength": 18432,
      "target": 34962,
      "byteStride": 8
    },
    {
      "buffer": 0,
      "byteOffset": 73728,
      "byteLength": 18432,
      "target": 34962,
      "byteStride": 8
    },
    {
      "buffer": 0,
      "byteOffset": 92160,
      "byteLength": 6336,
      "target": 34963
    },
    {
      "buffer": 0,
      "byteOffset": 98496,
      "byteLength": 504,
      "target": 34962,
      "byteStride": 12
    },
    {
      "buffer": 0,
      "byteOffset": 99000,
      "byteLength": 504,
      "target": 34962,
      "byteStride": 12
    },
    {
      "buffer": 0,
      "byteOffset": 99504,
      "byteLength": 336,
      "target": 34962,
      "byteStride": 8
    },
    {
      "buffer": 0,
      "byteOffset": 99840,
      "byteLength": 336,
      "target": 34962,
      "byteStride": 8
    },
    {
      "buffer": 0,
      "byteOffset": 100176,
      "byteLength": 132,
      "target": 34963
    },
    {
      "buffer": 0,
      "byteOffset": 100308,
      "byteLength": 48,
      "target": 34962,
      "byteStride": 12
    },
    {
      "buffer": 0,
      "byteOffset": 100356,
      "byteLength": 48,
      "target": 34962,
      "byteStride": 12
    },
    {
      "buffer": 0,
      "byteOffset": 100404,
      "byteLength": 32,
      "target": 34962,
      "byteStride": 8
    },
    {
      "buffer": 0,
      "byteOffset": 100436,
      "byteLength": 32,
      "target": 34962,
      "byteStride": 8
    },
    {
      "buffer": 0,
      "byteOffset": 100468,
      "byteLength": 12,
      "target": 34963
    },
    {
      "buffer": 0,
      "byteOffset": 100480,
      "byteLength": 372,
      "target": 34962,
      "byteStride": 12
    },
    {
      "buffer": 0,
      "byteOffset": 100852,
      "byteLength": 372,
      "target": 34962,
      "byteStride": 12
    },
    {
      "buffer": 0,
      "byteOffset": 101224,
      "byteLength": 248,
      "target": 34962,
      "byteStride": 8
    },
    {
      "buffer": 0,
      "byteOffset": 101472,
      "byteLength": 104,
      "target": 34963
    },
    {
      "buffer": 0,
      "byteOffset": 101576,
      "byteLength": 384,
      "target": 34962,
      "byteStride": 12
    },
    {
      "buffer": 0,
      "byteOffset": 101960,
      "byteLength": 384,
      "target": 34962,
      "byteStride": 12
    },
    {
      "buffer": 0,
      "byteOffset": 102344,
      "byteLength": 256,
      "target": 34962,
      "byteStride": 8
    },
    {
      "buffer": 0,
      "byteOffset": 102600,
      "byteLength": 120,
      "target": 34963
    },
    {
      "buffer": 0,
      "byteOffset": 102720,
      "byteLength": 360,
      "target": 34962,
      "byteStride": 12
    },
    {
      "buffer": 0,
      "byteOffset": 103080,
      "byteLength": 360,
      "target": 34962,
      "byteStride": 12
    },
    {
      "buffer": 0,
      "byteOffset": 103440,
      "byteLength": 240,
      "target": 34962,
      "byteStride": 8
    },
    {
      "buffer": 0,
      "byteOffset": 103680,
      "byteLength": 108,
      "target": 34963
    },
    {
      "buffer": 0,
      "byteOffset": 103788,
      "byteLength": 192,
      "target": 34962,
      "byteStride": 12
    },
    {
      "buffer": 0,
      "byteOffset": 103980,
      "byteLength": 192,
      "target": 34962,
      "byteStride": 12
    },
    {
      "buffer": 0,
      "byteOffset": 104172,
      "byteLength": 128,
      "target": 34962,
      "byteStride": 8
    },
    {
      "buffer": 0,
      "byteOffset": 104300,
      "byteLength": 60,
      "target": 34963
    },
    {
      "buffer": 0,
      "byteOffset": 104360,
      "byteLength": 10728,
      "target": 34962,
      "byteStride": 12
    },
    {
      "buffer": 0,
      "byteOffset": 115088,
      "byteLength": 10728,
      "target": 34962,
      "byteStride": 12
    },
    {
      "buffer": 0,
      "byteOffset": 125816,
      "byteLength": 7152,
      "target": 34962,
      "byteStride": 8
    },
    {
      "buffer": 0,
      "byteOffset": 132968,
      "byteLength": 4464,
      "target": 34963
    },
    {
      "buffer": 0,
      "byteOffset": 137432,
      "byteLength": 288,
      "target": 34962,
      "byteStride": 12
    },
    {
      "buffer": 0,
      "byteOffset": 137720,
      "byteLength": 288,
      "target": 34962,
      "byteStride": 12
    },
    {
      "buffer": 0,
      "byteOffset": 138008,
      "byteLength": 192,
      "target": 34962,
      "byteStride": 8
    },
    {
      "buffer": 0,
      "byteOffset": 138200,
      "byteLength": 72,
      "target": 34963
    }
  ],
  "buffers": [
    {
      "byteLength": 138272,
      "uri": "data:application/octet-stream;base64,"
    }
  ],
  "accessors": [
    {
      "bufferView": 0,
      "componentType": 5126,
      "count": 2304,
      "max": [
        1.249894380569458,
        1,
        7.131899833679199
      ],
      "min": [
        -7.800717353820801,
        -28.487545013427734,
        -1.2559634447097778
      ],
      "type": "VEC3"
    },
    {
      "bufferView": 1,
      "componentType": 5126,
      "count": 2304,
      "max": [
        1,
        1,
        1
      ],
      "min": [
        -1,
        -1,
        -1
      ],
      "type": "VEC3"
    },
    {
      "bufferView": 2,
      "componentType": 5126,
      "count": 2304,
      "max": [
        0.875,
        0.9972403049468994
      ],
      "min": [
        0.125,
        0
      ],
      "type": "VEC2"
    },
    {
      "bufferView": 3,
      "componentType": 5126,
      "count": 2304,
      "max": [
        0.9945935010910034,
        0.9053621888160706
      ],
      "min": [
        0.05223776400089264,
        0.0037607550621032715
      ],
      "type": "VEC2"
    },
    {
      "bufferView": 4,
      "componentType": 5123,
      "count": 3168,
      "max": [
        2303
      ],
      "min": [
        0
      ],
      "type": "SCALAR"
    },
    {
      "bufferView": 5,
      "componentType": 5126,
      "count": 42,
      "max": [
        0.6996605396270752,
        1.6781482696533203,
        0.9999980926513672
      ],
      "min": [
        0.3824882507324219,
        -0.3218517303466797,
        -1.0000019073486328
      ],
      "type": "VEC3"
    },
    {
      "bufferView": 6,
      "componentType": 5126,
      "count": 42,
      "max": [
        1,
        1,
        1
      ],
      "min": [
        -1,
        -1,
        -1
      ],
      "type": "VEC3"
    },
    {
      "bufferView": 7,
      "componentType": 5126,
      "count": 42,
      "max": [
        0.875,
        1
      ],
      "min": [
        0.125,
        0
      ],
      "type": "VEC2"
    },
    {
      "bufferView": 8,
      "componentType": 5126,
      "count": 42,
      "max": [
        0,
        1
      ],
      "min": [
        0,
        1
      ],
      "type": "VEC2"
    },
    {
      "bufferView": 9,
      "componentType": 5123,
      "count": 66,
      "max": [
        41
      ],
      "min": [
        0
      ],
      "type": "SCALAR"
    },
    {
      "bufferView": 10,
      "componentType": 5126,
      "count": 4,
      "max": [
        0.4225510060787201,
        1.0012588500976562,
        0.9999980926513672
      ],
      "min": [
        0.4225510060787201,
        -0.3218517303466797,
        -1.0000019073486328
      ],
      "type": "VEC3"
    },
    {
      "bufferView": 11,
      "componentType": 5126,
      "count": 4,
      "max": [
        1,
        0,
        0
      ],
      "min": [
        1,
        0,
        0
      ],
      "type": "VEC3"
    },
    {
      "bufferView": 12,
      "componentType": 5126,
      "count": 4,
      "max": [
        0.5,
        0.5
      ],
      "min": [
        0.375,
        0.25
      ],
      "type": "VEC2"
    },
    {
      "bufferView": 13,
      "componentType": 5126,
      "count": 4,
      "max": [
        0,
        1
      ],
      "min": [
        0,
        1
      ],
      "type": "VEC2"
    },
    {
      "bufferView": 14,
      "componentType": 5123,
      "count": 6,
      "max": [
        3
      ],
      "min": [
        0
      ],
      "type": "SCALAR"
    },
    {
      "bufferView": 15,
      "componentType": 5126,
      "count": 31,
      "max": [
        1,
        0.29525524377822876,
        2.0084195137023926
      ],
      "min": [
        -1.510412573814392,
        -0.7811428308486938,
        -1
      ],
      "type": "VEC3"
    },
    {
      "bufferView": 16,
      "componentType": 5126,
      "count": 31,
      "max": [
        1,
        0.9999932050704956,
        0
      ],
      "min": [
        -1,
        -1,
        -1
      ],
      "type": "VEC3"
    },
    {
      "bufferView": 17,
      "componentType": 5126,
      "count": 31,
      "max": [
        0.5,
        1
      ],
      "min": [
        0,
        0.25
      ],
      "type": "VEC2"
    },
    {
      "bufferView": 18,
      "componentType": 5123,
      "count": 51,
      "max": [
        30
      ],
      "min": [
        0
      ],
      "type": "SCALAR"
    },
    {
      "bufferView": 19,
      "componentType": 5126,
      "count": 32,
      "max": [
        1,
        1,
        2.0084195137023926
      ],
      "min": [
        -1.510412573814392,
        -0.7811428308486938,
        -1
      ],
      "type": "VEC3"
    },
    {
      "bufferView": 20,
      "componentType": 5126,
      "count": 32,
      "max": [
        0.9999992847442627,
        1,
        1
      ],
      "min": [
        -1,
        0,
        -1
      ],
      "type": "VEC3"
    },
    {
      "bufferView": 21,
      "componentType": 5126,
      "count": 32,
      "max": [
        0.875,
        1
      ],
      "min": [
        0,
        0.25
      ],
      "type": "VEC2"
    },
    {
      "bufferView": 22,
      "componentType": 5123,
      "count": 60,
      "max": [
        31
      ],
      "min": [
        0
      ],
      "type": "SCALAR"
    },
    {
      "bufferView": 23,
      "componentType": 5126,
      "count": 30,
      "max": [
        1,
        1,
        1
      ],
      "min": [
        -3.048027992248535,
        -2.036675453186035,
        -1.008505940437317
      ],
      "type": "VEC3"
    },
    {
      "bufferView": 24,
      "componentType": 5126,
      "count": 30,
      "max": [
        0,
        1,
        1
      ],
      "min": [
        -1,
        -1,
        -0.9999903440475464
      ],
      "type": "VEC3"
    },
    {
      "bufferView": 25,
      "componentType": 5126,
      "count": 30,
      "max": [
        0.875,
        1
      ],
      "min": [
        0.125,
        0
      ],
      "type": "VEC2"
    },
    {
      "bufferView": 26,
      "componentType": 5123,
      "count": 54,
      "max": [
        29
      ],
      "min": [
        0
      ],
      "type": "SCALAR"
    },
    {
      "bufferView": 27,
      "componentType": 5126,
      "count": 16,
      "max": [
        1,
        1,
        1
      ],
      "min": [
        -3.048027992248535,
        -2.036675453186035,
        -1.008505940437317
      ],
      "type": "VEC3"
    },
    {
      "bufferView": 28,
      "componentType": 5126,
      "count": 16,
      "max": [
        1,
        0,
        0
      ],
      "min": [
        -1,
        0,
        -1
      ],
      "type": "VEC3"
    },
    {
      "bufferView": 29,
      "componentType": 5126,
      "count": 16,
      "max": [
        0.625,
        1
      ],
      "min": [
        0.375,
        0.25
      ],
      "type": "VEC2"
    },
    {
      "bufferView": 30,
      "componentType": 5123,
      "count": 30,
      "max": [
        15
      ],
      "min": [
        0
      ],
      "type": "SCALAR"
    },
    {
      "bufferView": 31,
      "componentType": 5126,
      "count": 894,
      "max": [
        0.3764066696166992,
        0.6626269817352295,
        2.2209103107452393
      ],
      "min": [
        -0.319062739610672,
        -0.08693519979715347,
        -0.07571927458047867
      ],
      "type": "VEC3"
    },
    {
      "bufferView": 32,
      "componentType": 5126,
      "count": 894,
      "max": [
        0.9953577518463135,
        0.9919523000717163,
        0.9957519173622131
      ],
      "min": [
        -0.9949291348457336,
        -0.9905713200569153,
        -0.9995468854904175
      ],
      "type": "VEC3"
    },
    {
      "bufferView": 33,
      "componentType": 5126,
      "count": 894,
      "max": [
        1.0000016689300537,
        1
      ],
      "min": [
        -0.000001045959493239934,
        0
      ],
      "type": "VEC2"
    },
    {
      "bufferView": 34,
      "componentType": 5123,
      "count": 2232,
      "max": [
        893
      ],
      "min": [
        0
      ],
      "type": "SCALAR"
    },
    {
      "bufferView": 35,
      "componentType": 5126,
      "count": 24,
      "max": [
        1,
        1,
        1
      ],
      "min": [
        -1,
        -1,
        -1
      ],
      "type": "VEC3"
    },
    {
      "bufferView": 36,
      "componentType": 5126,
      "count": 24,
      "max": [
        1,
        1,
        1
      ],
      "min": [
        -1,
        -1,
        -1
      ],
      "type": "VEC3"
    },
    {
      "bufferView": 37,
      "componentType": 5126,
      "count": 24,
      "max": [
        0.875,
        1
      ],
      "min": [
        0.125,
        0
      ],
      "type": "VEC2"
    },
    {
      "bufferView": 38,
      "componentType": 5123,
      "count": 36,
      "max": [
        23
      ],
      "min": [
        0
      ],
      "type": "SCALAR"
    }
  ],
  "materials": [
    {
      "pbrMetallicRoughness": {
        "baseColorFactor": [
          0,
          0,
          0,
          1
        ],
        "metallicFactor": 1,
        "roughnessFactor": 1,
        "metallicRoughnessTexture": {
          "index": 0,
          "channel": 1
        }
      },
      "normalTexture": {
        "index": 1,
        "texCoord": 1
      },
      "doubleSided": true,
      "name": "Metal diamond"
    },
    {
      "pbrMetallicRoughness": {
        "baseColorFactor": [
          0.10183495283126831,
          0.10183495283126831,
          0.10183495283126831,
          1
        ],
        "metallicFactor": 1,
        "roughnessFactor": 0.22580644488334656
      },
      "doubleSided": true,
      "name": "metal gris"
    },
    {
      "pbrMetallicRoughness": {
        "baseColorFactor": [
          0,
          0,
          0,
          1
        ],
        "metallicFactor": 1,
        "roughnessFactor": 0.22580644488334656
      },
      "doubleSided": true,
      "name": "metal noir"
    },
    {
      "pbrMetallicRoughness": {
        "baseColorFactor": [
          0.4604746699333191,
          0.4604746699333191,
          0.4604746699333191,
          1
        ],
        "metallicFactor": 0,
        "roughnessFactor": 0.5
      },
      "doubleSided": true,
      "name": "mur blanc"
    },
    {
      "pbrMetallicRoughness": {
        "baseColorFactor": [
          1,
          0,
          0.012392459437251091,
          1
        ],
        "metallicFactor": 0.6344085931777954,
        "roughnessFactor": 0.6612902879714966
      },
      "doubleSided": true,
      "name": "revetement rouge"
    },
    {
      "pbrMetallicRoughness": {
        "baseColorFactor": [
          0.20366455614566803,
          0.19146570563316345,
          0.18206056952476501,
          0.6328308582305908
        ],
        "metallicFactor": 1,
        "roughnessFactor": 1
      },
      "alphaMode": "BLEND",
      "doubleSided": true,
      "name": "TRANSPARENT verre"
    }
  ],
  "textures": [
    {
      "sampler": 0,
      "source": 0,
      "name": "diamond_black_stairs_ROUGHNESS"
    },
    {
      "sampler": 1,
      "source": 1,
      "name": "diamond_black_stairs_NORMALS"
    }
  ],
  "samplers": [
    {
      "magFilter": 9729,
      "minFilter": 9987,
      "wrapS": 10497,
      "wrapT": 10497
    },
    {
      "magFilter": 9729,
      "minFilter": 9987,
      "wrapS": 10497,
      "wrapT": 10497
    }
  ],
  "images": [
    {
      "mimeType": "image/png",
      "uri": "data:image/png;base64,"
    },
    {
      "mimeType": "image/png",
      "uri": "data:image/png;base64,"
    }
  ],
  "meshes": [
    {
      "primitives": [
        {
          "mode": 4,
          "attributes": {
            "POSITION": 0,
            "NORMAL": 1,
            "TEXCOORD_0": 2,
            "TEXCOORD_1": 3
          },
          "indices": 4,
          "material": 0
        }
      ]
    },
    {
      "primitives": [
        {
          "mode": 4,
          "attributes": {
            "POSITION": 5,
            "NORMAL": 6,
            "TEXCOORD_0": 7,
            "TEXCOORD_1": 8
          },
          "indices": 9,
          "material": 1
        }
      ]
    },
    {
      "primitives": [
        {
          "mode": 4,
          "attributes": {
            "POSITION": 10,
            "NORMAL": 11,
            "TEXCOORD_0": 12,
            "TEXCOORD_1": 13
          },
          "indices": 14,
          "material": 2
        }
      ]
    },
    {
      "primitives": [
        {
          "mode": 4,
          "attributes": {
            "POSITION": 15,
            "NORMAL": 16,
            "TEXCOORD_0": 17
          },
          "indices": 18,
          "material": 3
        }
      ]
    },
    {
      "primitives": [
        {
          "mode": 4,
          "attributes": {
            "POSITION": 19,
            "NORMAL": 20,
            "TEXCOORD_0": 21
          },
          "indices": 22,
          "material": 4
        }
      ]
    },
    {
      "primitives": [
        {
          "mode": 4,
          "attributes": {
            "POSITION": 23,
            "NORMAL": 24,
            "TEXCOORD_0": 25
          },
          "indices": 26,
          "material": 4
        }
      ]
    },
    {
      "primitives": [
        {
          "mode": 4,
          "attributes": {
            "POSITION": 27,
            "NORMAL": 28,
            "TEXCOORD_0": 29
          },
          "indices": 30,
          "material": 3
        }
      ]
    },
    {
      "primitives": [
        {
          "mode": 4,
          "attributes": {
            "POSITION": 31,
            "NORMAL": 32,
            "TEXCOORD_0": 33
          },
          "indices": 34,
          "material": 1
        }
      ]
    },
    {
      "primitives": [
        {
          "mode": 4,
          "attributes": {
            "POSITION": 35,
            "NORMAL": 36,
            "TEXCOORD_0": 37
          },
          "indices": 38,
          "material": 5
        }
      ]
    }
  ]
}