{
  "asset": {
    "version": "2.0",
    "generator": "THREE.GLTFExporter"
  },
  "scenes": [
    {
      "name": "Scene",
      "nodes": [
        58
      ]
    }
  ],
  "scene": 0,
  "nodes": [
    {
      "name": "secretguest_LOW_table_rectangulaire_exterieur",
      "mesh": 0
    },
    {
      "name": "secretguest_LOW_table_rectangulaire_exterieur_1",
      "mesh": 1
    },
    {
      "matrix": [
        1.2704400300526342,
        -1.9646107887399542,
        0.054249190439500085,
        0,
        0.6723446181228284,
        0.43557279756135564,
        0.02871011583238995,
        0,
        -0.0027701041937950133,
        -1.1433362141782443e-8,
        0.06487154582121615,
        0,
        2.333812713623047,
        0.3062496781349182,
        -2.8546500205993652,
        1
      ],
      "name": "LOW_table_rectangulaire_exterieur",
      "extras": {
        "name": "LOW_table_rectangulaire_exterieur"
      },
      "children": [
        0,
        1
      ]
    },
    {
      "name": "secretguest_LOW_table_rectangulaire_exterieur",
      "mesh": 0
    },
    {
      "name": "secretguest_LOW_table_rectangulaire_exterieur_1",
      "mesh": 1
    },
    {
      "matrix": [
        1.2660961950307206,
        -1.9646105921203978,
        -0.11816069948655951,
        0,
        0.6700455929679784,
        0.4355728893483113,
        -0.06253294305134158,
        0,
        0.006033533264123556,
        -1.1590512981915611e-8,
        0.06464972113715364,
        0,
        2.333812713623047,
        0.3062496781349182,
        -1.2324590682983398,
        1
      ],
      "name": "LOW_table_rectangulaire_exterieur001",
      "extras": {
        "name": "LOW_table_rectangulaire_exterieur.001"
      },
      "children": [
        3,
        4
      ]
    },
    {
      "name": "secretguest_LOW_table_rectangulaire_exterieur",
      "mesh": 0
    },
    {
      "name": "secretguest_LOW_table_rectangulaire_exterieur_1",
      "mesh": 1
    },
    {
      "matrix": [
        1.2715978666012056,
        -1.9646106896153441,
        0,
        0,
        0.6729572873299419,
        0.43557283659595386,
        0,
        0,
        0,
        0,
        0.06493066251277924,
        0,
        2.333812713623047,
        0.3062496781349182,
        0.23317909240722656,
        1
      ],
      "name": "LOW_table_rectangulaire_exterieur002",
      "extras": {
        "name": "LOW_table_rectangulaire_exterieur.002"
      },
      "children": [
        6,
        7
      ]
    },
    {
      "name": "secretguest_LOW_table_rectangulaire_exterieur",
      "mesh": 0
    },
    {
      "name": "secretguest_LOW_table_rectangulaire_exterieur_1",
      "mesh": 1
    },
    {
      "matrix": [
        1.2715978666012056,
        -1.9646106896153441,
        0,
        0,
        0.6729572873299419,
        0.43557283659595386,
        0,
        0,
        0,
        0,
        0.06493066251277924,
        0,
        -2.3115909099578857,
        0.3062496781349182,
        -2.742636203765869,
        1
      ],
      "name": "LOW_table_rectangulaire_exterieur003",
      "extras": {
        "name": "LOW_table_rectangulaire_exterieur.003"
      },
      "children": [
        9,
        10
      ]
    },
    {
      "name": "secretguest_LOW_table_rectangulaire_exterieur",
      "mesh": 0
    },
    {
      "name": "secretguest_LOW_table_rectangulaire_exterieur_1",
      "mesh": 1
    },
    {
      "matrix": [
        1.2715978666012056,
        -1.9646106896153441,
        0,
        0,
        0.6729572873299419,
        0.43557283659595386,
        0,
        0,
        0,
        0,
        0.06493066251277924,
        0,
        2.300248622894287,
        0.3062496781349182,
        2.208887815475464,
        1
      ],
      "name": "LOW_table_rectangulaire_exterieur004",
      "extras": {
        "name": "LOW_table_rectangulaire_exterieur.004"
      },
      "children": [
        12,
        13
      ]
    },
    {
      "name": "secretguest_LOW_table_rectangulaire_exterieur",
      "mesh": 0
    },
    {
      "name": "secretguest_LOW_table_rectangulaire_exterieur_1",
      "mesh": 1
    },
    {
      "matrix": [
        1.2699480716771463,
        -1.9646107304205704,
        0.06475287231133699,
        0,
        0.6720842003320259,
        0.4355728237744482,
        0.034268893284716585,
        0,
        -0.0033064459567565237,
        -1.1537704539955134e-8,
        0.06484642125509732,
        0,
        0.8032839298248291,
        0.3062496781349182,
        -1.245884895324707,
        1
      ],
      "name": "LOW_table_rectangulaire_exterieur005",
      "extras": {
        "name": "LOW_table_rectangulaire_exterieur.005"
      },
      "children": [
        15,
        16
      ]
    },
    {
      "name": "secretguest_LOW_table_rectangulaire_exterieur",
      "mesh": 0
    },
    {
      "name": "secretguest_LOW_table_rectangulaire_exterieur_1",
      "mesh": 1
    },
    {
      "matrix": [
        1.268942291074067,
        -1.9646105794037985,
        -0.08213933335447247,
        0,
        0.6715518213175639,
        0.43557287353387814,
        -0.04346965659872364,
        0,
        0.004194201894840665,
        -1.1657559731950337e-8,
        0.06479505848598754,
        0,
        0.8032839298248291,
        0.3062496781349182,
        0.21975326538085938,
        1
      ],
      "name": "LOW_table_rectangulaire_exterieur006",
      "extras": {
        "name": "LOW_table_rectangulaire_exterieur.006"
      },
      "children": [
        18,
        19
      ]
    },
    {
      "name": "secretguest_LOW_table_rectangulaire_exterieur",
      "mesh": 0
    },
    {
      "name": "secretguest_LOW_table_rectangulaire_exterieur_1",
      "mesh": 1
    },
    {
      "matrix": [
        1.2670777433405291,
        -1.964610791792566,
        0.10712009407087478,
        0,
        0.6705652387563774,
        0.4355727811021515,
        0.056690548143283254,
        0,
        -0.005469811358962023,
        -1.1064775165425933e-8,
        0.0646998541756615,
        0,
        -0.8480761051177979,
        0.3062496781349182,
        -1.2257461547851562,
        1
      ],
      "name": "LOW_table_rectangulaire_exterieur007",
      "extras": {
        "name": "LOW_table_rectangulaire_exterieur.007"
      },
      "children": [
        21,
        22
      ]
    },
    {
      "name": "secretguest_LOW_table_rectangulaire_exterieur",
      "mesh": 0
    },
    {
      "name": "secretguest_LOW_table_rectangulaire_exterieur_1",
      "mesh": 1
    },
    {
      "matrix": [
        1.2715978666012056,
        -1.9646106896153441,
        0,
        0,
        0.6729572873299419,
        0.43557283659595386,
        0,
        0,
        0,
        0,
        0.06493066251277924,
        0,
        -0.8480761051177979,
        0.3062496781349182,
        0.23989200592041016,
        1
      ],
      "name": "LOW_table_rectangulaire_exterieur008",
      "extras": {
        "name": "LOW_table_rectangulaire_exterieur.008"
      },
      "children": [
        24,
        25
      ]
    },
    {
      "name": "secretguest_LOW_table_rectangulaire_exterieur",
      "mesh": 0
    },
    {
      "name": "secretguest_LOW_table_rectangulaire_exterieur_1",
      "mesh": 1
    },
    {
      "matrix": [
        1.2715978666012056,
        -1.9646106896153441,
        0,
        0,
        0.6729572873299419,
        0.43557283659595386,
        0,
        0,
        0,
        0,
        0.06493066251277924,
        0,
        -2.251060962677002,
        0.3062496781349182,
        -1.2324590682983398,
        1
      ],
      "name": "LOW_table_rectangulaire_exterieur009",
      "extras": {
        "name": "LOW_table_rectangulaire_exterieur.009"
      },
      "children": [
        27,
        28
      ]
    },
    {
      "name": "secretguest_LOW_table_rectangulaire_exterieur",
      "mesh": 0
    },
    {
      "name": "secretguest_LOW_table_rectangulaire_exterieur_1",
      "mesh": 1
    },
    {
      "matrix": [
        1.2693037053127803,
        -1.964610969349564,
        0.07634889809104253,
        0,
        0.671743265176678,
        0.4355728250224336,
        0.0404057573365578,
        0,
        -0.0038985648896627937,
        -1.1708560388360839e-8,
        0.06481351810530087,
        0,
        -2.251060962677002,
        0.3062496781349182,
        0.23317909240722656,
        1
      ],
      "name": "LOW_table_rectangulaire_exterieur010",
      "extras": {
        "name": "LOW_table_rectangulaire_exterieur.010"
      },
      "children": [
        30,
        31
      ]
    },
    {
      "name": "secretguest_LOW_table_rectangulaire_exterieur",
      "mesh": 0
    },
    {
      "name": "secretguest_LOW_table_rectangulaire_exterieur_1",
      "mesh": 1
    },
    {
      "matrix": [
        1.268942436495122,
        -1.9646106835953283,
        -0.08213630373636209,
        0,
        0.6715519608045337,
        0.43557285611505264,
        -0.04346805418554122,
        0,
        0.004194047258704272,
        -1.1597469784052392e-8,
        0.0647950685030505,
        0,
        1.8572006225585938,
        0.3062496781349182,
        2.222313404083252,
        1
      ],
      "name": "LOW_table_rectangulaire_exterieur011",
      "extras": {
        "name": "LOW_table_rectangulaire_exterieur.011"
      },
      "children": [
        33,
        34
      ]
    },
    {
      "name": "secretguest_LOW_table_rectangulaire_exterieur",
      "mesh": 0
    },
    {
      "name": "secretguest_LOW_table_rectangulaire_exterieur_1",
      "mesh": 1
    },
    {
      "matrix": [
        1.2715978666012056,
        -1.9646106896153441,
        0,
        0,
        0.6729572873299419,
        0.43557283659595386,
        0,
        0,
        0,
        0,
        0.06493066251277924,
        0,
        -2.606841802597046,
        0.3062496781349182,
        2.290665864944458,
        1
      ],
      "name": "LOW_table_rectangulaire_exterieur012",
      "extras": {
        "name": "LOW_table_rectangulaire_exterieur.012"
      },
      "children": [
        36,
        37
      ]
    },
    {
      "name": "secretguest_LOW_table_rectangulaire_exterieur",
      "mesh": 0
    },
    {
      "name": "secretguest_LOW_table_rectangulaire_exterieur_1",
      "mesh": 1
    },
    {
      "matrix": [
        1.2679716222133197,
        -1.9646107774355497,
        0.09596182487312414,
        0,
        0.6710382993167513,
        0.4355727790240635,
        0.050785351315714156,
        0,
        -0.004900045684276861,
        -1.115266294007047e-8,
        0.06474550552874943,
        0,
        -2.1637938022613525,
        0.3062496781349182,
        2.23422908782959,
        1
      ],
      "name": "LOW_table_rectangulaire_exterieur013",
      "extras": {
        "name": "LOW_table_rectangulaire_exterieur.013"
      },
      "children": [
        39,
        40
      ]
    },
    {
      "name": "secretguest_LOW_table_rectangulaire_exterieur",
      "mesh": 0
    },
    {
      "name": "secretguest_LOW_table_rectangulaire_exterieur_1",
      "mesh": 1
    },
    {
      "matrix": [
        1.2715978666012056,
        -1.9646106896153441,
        0,
        0,
        0.6729572873299419,
        0.43557283659595386,
        0,
        0,
        0,
        0,
        0.06493066251277924,
        0,
        -0.6534037590026855,
        0.3062496781349182,
        2.753852128982544,
        1
      ],
      "name": "LOW_table_rectangulaire_exterieur014",
      "extras": {
        "name": "LOW_table_rectangulaire_exterieur.014"
      },
      "children": [
        42,
        43
      ]
    },
    {
      "name": "secretguest_LOW_table_rectangulaire_exterieur",
      "mesh": 0
    },
    {
      "name": "secretguest_LOW_table_rectangulaire_exterieur_1",
      "mesh": 1
    },
    {
      "matrix": [
        1.2715978666012056,
        -1.9646106896153441,
        0,
        0,
        0.6729572873299419,
        0.43557283659595386,
        0,
        0,
        0,
        0,
        0.06493066251277924,
        0,
        0.2863945960998535,
        0.3062496781349182,
        1.7267866134643555,
        1
      ],
      "name": "LOW_table_rectangulaire_exterieur015",
      "extras": {
        "name": "LOW_table_rectangulaire_exterieur.015"
      },
      "children": [
        45,
        46
      ]
    },
    {
      "name": "secretguest_LOW_table_rectangulaire_exterieur",
      "mesh": 0
    },
    {
      "name": "secretguest_LOW_table_rectangulaire_exterieur_1",
      "mesh": 1
    },
    {
      "matrix": [
        1.2715978666012056,
        -1.9646106896153441,
        0,
        0,
        0.6729572873299419,
        0.43557283659595386,
        0,
        0,
        0,
        0,
        0.06493066251277924,
        0,
        6.8499040603637695,
        0.27093321084976196,
        1.776841402053833,
        1
      ],
      "name": "LOW_table_rectangulaire_exterieur016",
      "extras": {
        "name": "LOW_table_rectangulaire_exterieur.016"
      },
      "children": [
        48,
        49
      ]
    },
    {
      "name": "secretguest_LOW_table_rectangulaire_exterieur001",
      "mesh": 2
    },
    {
      "name": "secretguest_LOW_table_rectangulaire_exterieur001_1",
      "mesh": 3
    },
    {
      "matrix": [
        1.271209716865542,
        -1.9646112357103038,
        0.03140265260710944,
        0,
        0.6727522304225518,
        0.43557272023019805,
        0.016619229758576364,
        0,
        -0.0016035082676979268,
        -1.1478130547643594e-8,
        0.06491085961713314,
        0,
        1.0691709518432617,
        0.3062496781349182,
        -2.8546500205993652,
        1
      ],
      "name": "LOW_table_rectangulaire_exterieur_LONGUE",
      "extras": {
        "name": "LOW_table_rectangulaire_exterieur_LONGUE"
      },
      "children": [
        51,
        52
      ]
    },
    {
      "name": "secretguest_LOW_table_rectangulaire_exterieur001",
      "mesh": 2
    },
    {
      "name": "secretguest_LOW_table_rectangulaire_exterieur001_1",
      "mesh": 3
    },
    {
      "matrix": [
        1.2715978666012056,
        -1.9646106896153441,
        0,
        0,
        0.6729572873299419,
        0.43557283659595386,
        0,
        0,
        0,
        0,
        0.06493066251277924,
        0,
        -0.8701319694519043,
        0.3062496781349182,
        -2.8546500205993652,
        1
      ],
      "name": "LOW_table_rectangulaire_exterieur_LONGUE001",
      "extras": {
        "name": "LOW_table_rectangulaire_exterieur_LONGUE.001"
      },
      "children": [
        54,
        55
      ]
    },
    {
      "matrix": [
        1,
        0,
        0,
        0,
        0,
        1,
        0,
        0,
        0,
        0,
        1,
        0,
        3.093319892883301,
        0.7644078135490417,
        -5.546140193939209,
        1
      ],
      "name": "tables_ext",
      "extras": {
        "name": "tables ext"
      },
      "children": [
        2,
        5,
        8,
        11,
        14,
        17,
        20,
        23,
        26,
        29,
        32,
        35,
        38,
        41,
        44,
        47,
        50,
        53,
        56
      ]
    },
    {
      "name": "v7_peniche mecanique.glb",
      "children": [
        57
      ]
    }
  ],
  "bufferViews": [
    {
      "buffer": 0,
      "byteOffset": 0,
      "byteLength": 864,
      "target": 34962,
      "byteStride": 12
    },
    {
      "buffer": 0,
      "byteOffset": 864,
      "byteLength": 864,
      "target": 34962,
      "byteStride": 12
    },
    {
      "buffer": 0,
      "byteOffset": 1728,
      "byteLength": 576,
      "target": 34962,
      "byteStride": 8
    },
    {
      "buffer": 0,
      "byteOffset": 2304,
      "byteLength": 216,
      "target": 34963
    },
    {
      "buffer": 0,
      "byteOffset": 2520,
      "byteLength": 96,
      "target": 34962,
      "byteStride": 12
    },
    {
      "buffer": 0,
      "byteOffset": 2616,
      "byteLength": 96,
      "target": 34962,
      "byteStride": 12
    },
    {
      "buffer": 0,
      "byteOffset": 2712,
      "byteLength": 64,
      "target": 34962,
      "byteStride": 8
    },
    {
      "buffer": 0,
      "byteOffset": 2776,
      "byteLength": 72,
      "target": 34963
    },
    {
      "buffer": 0,
      "byteOffset": 2848,
      "byteLength": 864,
      "target": 34962,
      "byteStride": 12
    },
    {
      "buffer": 0,
      "byteOffset": 3712,
      "byteLength": 864,
      "target": 34962,
      "byteStride": 12
    },
    {
      "buffer": 0,
      "byteOffset": 4576,
      "byteLength": 576,
      "target": 34962,
      "byteStride": 8
    },
    {
      "buffer": 0,
      "byteOffset": 5152,
      "byteLength": 96,
      "target": 34962,
      "byteStride": 12
    },
    {
      "buffer": 0,
      "byteOffset": 5248,
      "byteLength": 96,
      "target": 34962,
      "byteStride": 12
    },
    {
      "buffer": 0,
      "byteOffset": 5344,
      "byteLength": 64,
      "target": 34962,
      "byteStride": 8
    }
  ],
  "buffers": [
    {
      "byteLength": 5408,
      "uri": "data:application/octet-stream;base64,"
    }
  ],
  "accessors": [
    {
      "bufferView": 0,
      "componentType": 5126,
      "count": 72,
      "max": [
        0.1607847809791565,
        0.12800845503807068,
        2.0830650329589844
      ],
      "min": [
        -0.029874742031097412,
        -0.4309544265270233,
        -2.3142757415771484
      ],
      "type": "VEC3"
    },
    {
      "bufferView": 1,
      "componentType": 5126,
      "count": 72,
      "max": [
        0.9761470556259155,
        1,
        1
      ],
      "min": [
        -0.9885651469230652,
        -0.4617003798484802,
        -1
      ],
      "type": "VEC3"
    },
    {
      "bufferView": 2,
      "componentType": 5126,
      "count": 72,
      "max": [
        1,
        1
      ],
      "min": [
        0,
        0
      ],
      "type": "VEC2"
    },
    {
      "bufferView": 3,
      "componentType": 5123,
      "count": 108,
      "max": [
        71
      ],
      "min": [
        0
      ],
      "type": "SCALAR"
    },
    {
      "bufferView": 4,
      "componentType": 5126,
      "count": 8,
      "max": [
        0.046584352850914,
        0.22833722829818726,
        3.268242835998535
      ],
      "min": [
        -0.051932938396930695,
        -0.2145407795906067,
        -3.251215934753418
      ],
      "type": "VEC3"
    },
    {
      "bufferView": 5,
      "componentType": 5126,
      "count": 8,
      "max": [
        0.12669737637043,
        0.532988965511322,
        0.8365826606750488
      ],
      "min": [
        -0.993590772151947,
        -0.5478213429450989,
        -0.8365826606750488
      ],
      "type": "VEC3"
    },
    {
      "bufferView": 6,
      "componentType": 5126,
      "count": 8,
      "max": [
        1,
        1
      ],
      "min": [
        0,
        0
      ],
      "type": "VEC2"
    },
    {
      "bufferView": 7,
      "componentType": 5123,
      "count": 36,
      "max": [
        7
      ],
      "min": [
        0
      ],
      "type": "SCALAR"
    },
    {
      "bufferView": 8,
      "componentType": 5126,
      "count": 72,
      "max": [
        0.1607847809791565,
        0.12800845503807068,
        2.0830650329589844
      ],
      "min": [
        -0.029874742031097412,
        -0.4309544265270233,
        -2.3142757415771484
      ],
      "type": "VEC3"
    },
    {
      "bufferView": 9,
      "componentType": 5126,
      "count": 72,
      "max": [
        0.9761470556259155,
        1,
        1
      ],
      "min": [
        -0.9885651469230652,
        -0.4617003798484802,
        -1
      ],
      "type": "VEC3"
    },
    {
      "bufferView": 10,
      "componentType": 5126,
      "count": 72,
      "max": [
        1,
        1
      ],
      "min": [
        0,
        0
      ],
      "type": "VEC2"
    },
    {
      "bufferView": 11,
      "componentType": 5126,
      "count": 8,
      "max": [
        0.10283896327018738,
        0.48206841945648193,
        3.268242835998535
      ],
      "min": [
        -0.10818754136562347,
        -0.46827197074890137,
        -3.251215934753418
      ],
      "type": "VEC3"
    },
    {
      "bufferView": 12,
      "componentType": 5126,
      "count": 8,
      "max": [
        0.1262022852897644,
        0.5310096144676208,
        0.8379151821136475
      ],
      "min": [
        -0.9898492693901062,
        -0.5558107495307922,
        -0.8379151821136475
      ],
      "type": "VEC3"
    },
    {
      "bufferView": 13,
      "componentType": 5126,
      "count": 8,
      "max": [
        1,
        1
      ],
      "min": [
        0,
        0
      ],
      "type": "VEC2"
    }
  ],
  "materials": [
    {
      "pbrMetallicRoughness": {
        "baseColorFactor": [
          0,
          0,
          0,
          1
        ],
        "metallicFactor": 1,
        "roughnessFactor": 0.22580644488334656
      },
      "doubleSided": true,
      "name": "metal noir"
    },
    {
      "pbrMetallicRoughness": {
        "baseColorFactor": [
          0.27650949358940125,
          0.2765103578567505,
          0.276513010263443,
          1
        ],
        "metallicFactor": 0.260869562625885,
        "roughnessFactor": 0.5
      },
      "doubleSided": true,
      "name": "plastique gris"
    },
    {
      "pbrMetallicRoughness": {
        "metallicFactor": 1,
        "roughnessFactor": 1
      }
    }
  ],
  "meshes": [
    {
      "primitives": [
        {
          "mode": 4,
          "attributes": {
            "POSITION": 0,
            "NORMAL": 1,
            "TEXCOORD_0": 2
          },
          "indices": 3,
          "material": 0
        }
      ]
    },
    {
      "primitives": [
        {
          "mode": 4,
          "attributes": {
            "POSITION": 4,
            "NORMAL": 5,
            "TEXCOORD_0": 6
          },
          "indices": 7,
          "material": 1
        }
      ]
    },
    {
      "primitives": [
        {
          "mode": 4,
          "attributes": {
            "POSITION": 8,
            "NORMAL": 9,
            "TEXCOORD_0": 10
          },
          "indices": 3,
          "material": 2
        }
      ]
    },
    {
      "primitives": [
        {
          "mode": 4,
          "attributes": {
            "POSITION": 11,
            "NORMAL": 12,
            "TEXCOORD_0": 13
          },
          "indices": 7,
          "material": 1
        }
      ]
    }
  ]
}