{
  "asset": {
    "version": "2.0",
    "generator": "THREE.GLTFExporter"
  },
  "scenes": [
    {
      "name": "Scene",
      "nodes": [
        13
      ]
    }
  ],
  "scene": 0,
  "nodes": [
    {
      "name": "Scene_Collection_table_ronde_petite_haute_LOW",
      "mesh": 0
    },
    {
      "name": "Scene_Collection_table_ronde_petite_haute_LOW_1",
      "mesh": 1
    },
    {
      "name": "Scene_Collection_table_ronde_petite_haute_LOW_2",
      "mesh": 2
    },
    {
      "matrix": [
        0.0037514911964535713,
        0,
        0,
        0,
        0,
        0.0025918440406821007,
        -0.002712204492540275,
        0,
        0,
        0.002712204492540275,
        0.0025918440406821007,
        0,
        -1.0906143188476562,
        -0.18910658359527588,
        0.38267308473587036,
        1
      ],
      "name": "table_ronde_petite_haute_LOW",
      "extras": {
        "name": "table_ronde_petite_haute_LOW"
      },
      "children": [
        0,
        1,
        2
      ]
    },
    {
      "name": "Scene_Collection_table_ronde_petite_haute_LOW",
      "mesh": 0
    },
    {
      "name": "Scene_Collection_table_ronde_petite_haute_LOW_1",
      "mesh": 1
    },
    {
      "name": "Scene_Collection_table_ronde_petite_haute_LOW_2",
      "mesh": 2
    },
    {
      "matrix": [
        0.0037514911964535713,
        0,
        0,
        0,
        0,
        0.0025918440406821007,
        -0.002712204492540275,
        0,
        0,
        0.002712204492540275,
        0.0025918440406821007,
        0,
        -1.0292024612426758,
        -0.18910658359527588,
        -0.6215876340866089,
        1
      ],
      "name": "table_ronde_petite_haute_LOW001",
      "extras": {
        "name": "table_ronde_petite_haute_LOW.001"
      },
      "children": [
        4,
        5,
        6
      ]
    },
    {
      "name": "Scene_Collection_table_ronde_petite_haute_LOW",
      "mesh": 0
    },
    {
      "name": "Scene_Collection_table_ronde_petite_haute_LOW_1",
      "mesh": 1
    },
    {
      "name": "Scene_Collection_table_ronde_petite_haute_LOW_2",
      "mesh": 2
    },
    {
      "matrix": [
        0.0037514911964535713,
        0,
        0,
        0,
        0,
        0.0025918440406821007,
        -0.002712204492540275,
        0,
        0,
        0.002712204492540275,
        0.0025918440406821007,
        0,
        -0.8955416679382324,
        -0.18910658359527588,
        -0.513214111328125,
        1
      ],
      "name": "table_ronde_petite_haute_LOW002",
      "extras": {
        "name": "table_ronde_petite_haute_LOW.002"
      },
      "children": [
        8,
        9,
        10
      ]
    },
    {
      "matrix": [
        1,
        0,
        0,
        0,
        0,
        1,
        0,
        0,
        0,
        0,
        1,
        0,
        5.344849109649658,
        1.3386945724487305,
        0.10385486483573914,
        1
      ],
      "name": "tables",
      "extras": {
        "name": "tables"
      },
      "children": [
        3,
        7,
        11
      ]
    },
    {
      "name": "v7_peniche mecanique.glb",
      "children": [
        12
      ]
    }
  ],
  "bufferViews": [
    {
      "buffer": 0,
      "byteOffset": 0,
      "byteLength": 192,
      "target": 34962,
      "byteStride": 12
    },
    {
      "buffer": 0,
      "byteOffset": 192,
      "byteLength": 192,
      "target": 34962,
      "byteStride": 12
    },
    {
      "buffer": 0,
      "byteOffset": 384,
      "byteLength": 128,
      "target": 34962,
      "byteStride": 8
    },
    {
      "buffer": 0,
      "byteOffset": 512,
      "byteLength": 96,
      "target": 34963
    },
    {
      "buffer": 0,
      "byteOffset": 608,
      "byteLength": 768,
      "target": 34962,
      "byteStride": 12
    },
    {
      "buffer": 0,
      "byteOffset": 1376,
      "byteLength": 768,
      "target": 34962,
      "byteStride": 12
    },
    {
      "buffer": 0,
      "byteOffset": 2144,
      "byteLength": 512,
      "target": 34962,
      "byteStride": 8
    },
    {
      "buffer": 0,
      "byteOffset": 2656,
      "byteLength": 384,
      "target": 34963
    },
    {
      "buffer": 0,
      "byteOffset": 3040,
      "byteLength": 768,
      "target": 34962,
      "byteStride": 12
    },
    {
      "buffer": 0,
      "byteOffset": 3808,
      "byteLength": 768,
      "target": 34962,
      "byteStride": 12
    },
    {
      "buffer": 0,
      "byteOffset": 4576,
      "byteLength": 512,
      "target": 34962,
      "byteStride": 8
    },
    {
      "buffer": 0,
      "byteOffset": 5088,
      "byteLength": 360,
      "target": 34963
    }
  ],
  "buffers": [
    {
      "byteLength": 5448,
      "uri": "data:application/octet-stream;base64,"
    }
  ],
  "accessors": [
    {
      "bufferView": 0,
      "componentType": 5126,
      "count": 16,
      "max": [
        10.322457313537598,
        14.866203308105469,
        14.889747619628906
      ],
      "min": [
        -13.076064109802246,
        -71.78816223144531,
        -67.73589324951172
      ],
      "type": "VEC3"
    },
    {
      "bufferView": 1,
      "componentType": 5126,
      "count": 16,
      "max": [
        0.5518155097961426,
        0.7356237769126892,
        0.8039089441299438
      ],
      "min": [
        -1,
        -0.9953100681304932,
        -0.8118007183074951
      ],
      "type": "VEC3"
    },
    {
      "bufferView": 2,
      "componentType": 5126,
      "count": 16,
      "max": [
        1,
        1
      ],
      "min": [
        0,
        0
      ],
      "type": "VEC2"
    },
    {
      "bufferView": 3,
      "componentType": 5123,
      "count": 48,
      "max": [
        15
      ],
      "min": [
        0
      ],
      "type": "SCALAR"
    },
    {
      "bufferView": 4,
      "componentType": 5126,
      "count": 64,
      "max": [
        22.655616760253906,
        30.02661895751953,
        30.049972534179688
      ],
      "min": [
        -22.495153427124023,
        -3.287281036376953,
        -3.2639236450195312
      ],
      "type": "VEC3"
    },
    {
      "bufferView": 5,
      "componentType": 5126,
      "count": 64,
      "max": [
        0.7278656959533691,
        0.9995558857917786,
        0.9995558857917786
      ],
      "min": [
        -0.7278656959533691,
        -0.9995558857917786,
        -0.9995558857917786
      ],
      "type": "VEC3"
    },
    {
      "bufferView": 6,
      "componentType": 5126,
      "count": 64,
      "max": [
        0.9900000095367432,
        0.9900000095367432
      ],
      "min": [
        0.5099999904632568,
        0.5099999904632568
      ],
      "type": "VEC2"
    },
    {
      "bufferView": 7,
      "componentType": 5123,
      "count": 192,
      "max": [
        63
      ],
      "min": [
        0
      ],
      "type": "SCALAR"
    },
    {
      "bufferView": 8,
      "componentType": 5126,
      "count": 64,
      "max": [
        22.655616760253906,
        30.02661895751953,
        30.049972534179688
      ],
      "min": [
        -22.495153427124023,
        -3.287281036376953,
        -3.2639236450195312
      ],
      "type": "VEC3"
    },
    {
      "bufferView": 9,
      "componentType": 5126,
      "count": 64,
      "max": [
        0.7278656959533691,
        0.9995558857917786,
        0.9995558857917786
      ],
      "min": [
        -0.7278656959533691,
        -0.9995558857917786,
        -0.9995558857917786
      ],
      "type": "VEC3"
    },
    {
      "bufferView": 10,
      "componentType": 5126,
      "count": 64,
      "max": [
        0.9900000095367432,
        0.9900000095367432
      ],
      "min": [
        0.5099999904632568,
        0.5099999904632568
      ],
      "type": "VEC2"
    },
    {
      "bufferView": 11,
      "componentType": 5123,
      "count": 180,
      "max": [
        63
      ],
      "min": [
        0
      ],
      "type": "SCALAR"
    }
  ],
  "materials": [
    {
      "pbrMetallicRoughness": {
        "baseColorFactor": [
          0,
          0,
          0,
          1
        ],
        "metallicFactor": 1,
        "roughnessFactor": 0.22580644488334656
      },
      "doubleSided": true,
      "name": "metal noir"
    },
    {
      "pbrMetallicRoughness": {
        "baseColorFactor": [
          0.8003076910972595,
          0.4727236330509186,
          0.019368797540664673,
          1
        ],
        "metallicFactor": 1,
        "roughnessFactor": 0.23369565606117249
      },
      "doubleSided": true,
      "name": "or cercle"
    },
    {
      "pbrMetallicRoughness": {
        "baseColorFactor": [
          0.8002356290817261,
          0,
          0.0048791030421853065,
          1
        ],
        "metallicFactor": 0.5978260636329651,
        "roughnessFactor": 0.04347825050354004
      },
      "doubleSided": true,
      "name": "rouge table"
    }
  ],
  "meshes": [
    {
      "primitives": [
        {
          "mode": 4,
          "attributes": {
            "POSITION": 0,
            "NORMAL": 1,
            "TEXCOORD_0": 2
          },
          "indices": 3,
          "material": 0
        }
      ]
    },
    {
      "primitives": [
        {
          "mode": 4,
          "attributes": {
            "POSITION": 4,
            "NORMAL": 5,
            "TEXCOORD_0": 6
          },
          "indices": 7,
          "material": 1
        }
      ]
    },
    {
      "primitives": [
        {
          "mode": 4,
          "attributes": {
            "POSITION": 8,
            "NORMAL": 9,
            "TEXCOORD_0": 10
          },
          "indices": 11,
          "material": 2
        }
      ]
    }
  ]
}